<svg viewBox="0 0 58 58" fill="none" xmlns="http://www.w3.org/2000/svg">
<path d="M48.9373 20.1188V16.3125C48.9373 13.909 47.9825 11.6039 46.283 9.90434C44.5834 8.2048 42.2783 7.25 39.8748 7.25H18.1248C15.7213 7.25 13.4162 8.2048 11.7167 9.90434C10.0171 11.6039 9.06231 13.909 9.06231 16.3125V20.1188C7.01366 20.5347 5.17182 21.6462 3.84887 23.2648C2.52592 24.8834 1.80322 26.9095 1.80322 29C1.80322 31.0905 2.52592 33.1166 3.84887 34.7352C5.17182 36.3538 7.01366 37.4653 9.06231 37.8812V45.3125C9.06231 46.2739 9.44423 47.1959 10.124 47.8758C10.8039 48.5556 11.7259 48.9375 12.6873 48.9375H45.3123C46.2737 48.9375 47.1958 48.5556 47.8756 47.8758C48.5554 47.1959 48.9373 46.2739 48.9373 45.3125V37.8812C50.986 37.4653 52.8278 36.3538 54.1507 34.7352C55.4737 33.1166 56.1964 31.0905 56.1964 29C56.1964 26.9095 55.4737 24.8834 54.1507 23.2648C52.8278 21.6462 50.986 20.5347 48.9373 20.1188ZM18.1248 10.875H39.8748C41.3169 10.875 42.7 11.4479 43.7197 12.4676C44.7394 13.4873 45.3123 14.8704 45.3123 16.3125V20.1188C43.2667 20.5393 41.4287 21.6524 40.108 23.2702C38.7874 24.888 38.0649 26.9116 38.0623 29H19.9373C19.9348 26.9116 19.2123 24.888 17.8916 23.2702C16.571 21.6524 14.7329 20.5393 12.6873 20.1188V16.3125C12.6873 14.8704 13.2602 13.4873 14.2799 12.4676C15.2996 11.4479 16.6827 10.875 18.1248 10.875ZM47.2132 34.4375H47.1248C46.6441 34.4375 46.1831 34.6285 45.8432 34.9684C45.5033 35.3083 45.3123 35.7693 45.3123 36.25V45.3125H12.6873V36.25C12.6873 35.7693 12.4963 35.3083 12.1564 34.9684C11.8165 34.6285 11.3555 34.4375 10.8748 34.4375H10.7864C9.71495 34.4201 8.67248 34.0864 7.78999 33.4785C6.9075 32.8705 6.22433 32.0153 5.82629 31.0203C5.42826 30.0254 5.3331 28.935 5.55278 27.8861C5.77246 26.8372 6.29718 25.8766 7.06103 25.125C7.82487 24.3733 8.79379 23.8642 9.84608 23.6614C10.8984 23.4587 11.9871 23.5714 12.9755 23.9854C13.964 24.3994 14.808 25.0963 15.4017 25.9885C15.9954 26.8806 16.3122 27.9284 16.3123 29V38.0625C16.3123 38.5432 16.5033 39.0042 16.8432 39.3441C17.1831 39.684 17.6441 39.875 18.1248 39.875C18.6055 39.875 19.0665 39.684 19.4064 39.3441C19.7463 39.0042 19.9373 38.5432 19.9373 38.0625V32.625H38.0623V38.0625C38.0623 38.5432 38.2533 39.0042 38.5932 39.3441C38.9331 39.684 39.3941 39.875 39.8748 39.875C40.3555 39.875 40.8165 39.684 41.1564 39.3441C41.4963 39.0042 41.6873 38.5432 41.6873 38.0625V29C41.6875 27.9284 42.0042 26.8806 42.5979 25.9885C43.1916 25.0963 44.0356 24.3994 45.0241 23.9854C46.0125 23.5714 47.1012 23.4587 48.1535 23.6614C49.2058 23.8642 50.1747 24.3733 50.9386 25.125C51.7024 25.8766 52.2272 26.8372 52.4468 27.8861C52.6665 28.935 52.5714 30.0254 52.1733 31.0203C51.7753 32.0153 51.0921 32.8705 50.2096 33.4785C49.3271 34.0864 48.2847 34.4201 47.2132 34.4375Z" fill="#C1C5C8"/>
</svg>
