<svg width="583" height="236" viewBox="0 0 583 236" fill="none" xmlns="http://www.w3.org/2000/svg">
<g opacity="0.3">
<path d="M116.423 113.613C119.819 110.418 122.133 106.346 123.071 101.912C124.01 97.4785 123.531 92.8823 121.695 88.7051C119.859 84.528 116.748 80.9574 112.757 78.4453C108.765 75.9332 104.073 74.5923 99.2718 74.5923C94.471 74.5923 89.7782 75.9332 85.7869 78.4453C81.7955 80.9574 78.6851 84.528 76.8491 88.7051C75.0131 92.8823 74.5339 97.4785 75.4722 101.912C76.4106 106.346 78.7243 110.418 82.1207 113.613C84.3723 115.735 87.046 117.419 89.9889 118.567C92.9318 119.716 96.0861 120.307 99.2718 120.307C102.457 120.307 105.612 119.716 108.555 118.567C111.498 117.419 114.171 115.735 116.423 113.613Z" fill="#CFAC65"/>
<path d="M51.0944 182.279C63.4358 190.338 77.3458 186.493 87.3574 177.065C91.2559 173.416 93.3782 168.159 90.7254 163.162C88.3298 158.401 84.7633 154.245 80.3216 151.041C93.7324 144.641 108.787 141.931 123.759 143.221C134.739 144.046 145.558 148.477 155.777 154.56C158.084 157.666 160.391 160.643 162.698 163.51C165.489 166.986 168.442 170.331 171.464 173.633C144.336 165.509 114.047 168.55 94.8314 190.881C79.6296 208.542 86.7346 245.798 110.495 254.661C121.521 258.788 131.256 256.138 140.483 249.512C149.71 242.887 152.386 227.789 138.453 225.378C138.08 225.357 137.706 225.407 137.353 225.524C137 225.642 136.676 225.824 136.399 226.061C136.122 226.297 135.898 226.584 135.739 226.903C135.581 227.222 135.492 227.568 135.477 227.92C135.754 232.438 139.445 236.609 135.662 240.562C132.248 244.255 126.435 247.405 121.221 246.645C112.432 245.385 107.542 237.043 106.089 229.484C102.329 209.933 120.576 194.726 139.053 191.468C161.106 187.688 183.505 200.418 201.198 211.019C204.866 213.191 208.419 215.624 211.925 218.057C202.826 216.634 193.488 218.395 185.674 223.01C173.863 229.397 168.073 242.561 169.687 255.03C171.602 270.041 188.857 272.561 200.622 266.348C202.146 265.637 203.479 264.61 204.524 263.346C205.568 262.082 206.295 260.611 206.652 259.045C207.009 257.479 206.986 255.858 206.585 254.301C206.184 252.745 205.415 251.293 204.336 250.056C203.014 248.279 201.298 246.793 199.306 245.701C197.315 244.61 195.096 243.939 192.802 243.734C193.002 243.311 193.225 242.897 193.471 242.496C195.138 239.859 197.501 237.673 200.33 236.15C203.16 234.628 206.359 233.82 209.618 233.807C218.638 234.263 226.435 234.502 234.993 237.717C239.607 239.411 244.751 243.104 249.987 244.364L258.246 236.587C257.067 233.439 255.584 230.4 253.817 227.507C249.388 219.122 248.234 211.975 247.45 202.829C246.827 195.595 247.796 191.12 253.309 185.646C254.616 184.369 256.186 183.356 257.923 182.67C257.923 187.015 260.853 190.99 265.489 194.357C266.699 195.128 268.058 195.667 269.489 195.943C270.92 196.219 272.394 196.225 273.828 195.963C275.262 195.701 276.627 195.174 277.844 194.414C279.061 193.654 280.107 192.675 280.922 191.533C287.842 179.976 287.265 167.637 273.217 161.837C260.253 156.363 244.082 165.226 236.539 174.741C229.388 183.756 229.134 192.12 231.048 201.504C228.465 198.224 225.95 194.987 223.551 191.49C211.325 174.111 200.137 154.56 202.121 132.837C203.943 113.286 221.498 100.252 241.729 101.012C248.926 101.229 257.877 106.095 260.183 112.764C261.844 117.413 260.184 121.323 257.554 125.255C252.64 132.511 248.326 129.035 241.175 128.688C240.739 128.673 240.305 128.751 239.906 128.917C239.506 129.084 239.152 129.333 238.87 129.647C238.588 129.96 238.385 130.33 238.277 130.729C238.169 131.127 238.158 131.543 238.246 131.946C240.737 145.11 256.7 141.157 263.436 133.771C270.772 125.82 273.563 115.784 269.688 105.856C269.365 105.031 268.926 104.292 268.534 103.51C267.634 102.12 266.781 100.73 265.95 99.3178C252.756 81.5264 219.699 78.3982 202.144 90.0636C176.769 106.943 174.878 137.442 183.69 163.249C181.06 161.077 178.407 158.774 175.662 156.602C171.948 153.669 167.98 150.824 163.805 148.108C157.407 138.767 153.054 128.316 151.002 117.37C148.695 103.076 152.663 89.3034 159.33 76.8125C162.987 81.124 167.653 84.5812 172.963 86.9139C175.016 87.6914 177.256 87.9243 179.44 87.5873C181.624 87.2502 183.668 86.3562 185.351 85.0022C194.578 76.3129 200.345 65.8857 195.201 53.612C191.164 43.9452 179.514 35.1906 168.096 36.8416C147.104 39.8394 136.469 63.822 133.263 81.092C129.71 100.317 135.87 120.194 145.65 137.833C127.011 128.905 106.158 123.604 86.2271 126.189C68.7415 128.362 44.7046 137.92 39.1221 155.364C35.1774 166.703 41.6365 176.11 51.0944 182.279Z" fill="#CFAC65"/>
<path d="M503.439 113.612C506.832 110.416 509.143 106.344 510.078 101.911C511.014 97.4784 510.533 92.8838 508.696 88.7085C506.859 84.5331 503.749 80.9644 499.758 78.4537C495.767 75.9429 491.076 74.6028 486.276 74.6028C481.477 74.6028 476.786 75.9429 472.795 78.4537C468.804 80.9644 465.694 84.5331 463.857 88.7085C462.02 92.8838 461.539 97.4784 462.475 101.911C463.41 106.344 465.721 110.416 469.114 113.612C473.668 117.894 479.841 120.299 486.276 120.299C492.712 120.299 498.885 117.894 503.439 113.612Z" fill="#CFAC65"/>
<path d="M499.655 126.323C479.724 123.738 458.871 129.038 440.255 137.966C450.013 120.24 456.172 100.45 452.619 81.2252C449.413 63.9552 438.778 39.951 417.81 36.9749C406.275 35.3239 394.741 44.0784 390.681 53.7452C385.537 66.0189 391.258 76.3592 400.532 85.1354C402.214 86.4894 404.258 87.3834 406.442 87.7204C408.626 88.0575 410.866 87.8246 412.919 87.047C418.229 84.7144 422.895 81.2572 426.552 76.9457C433.219 89.4365 437.279 103.209 434.903 117.503C432.843 128.451 428.482 138.901 422.077 148.241C417.902 150.957 413.934 153.803 410.22 156.735C407.498 158.908 404.83 161.123 402.215 163.382C410.889 137.575 409.021 107.076 383.623 90.1969C366.091 78.5315 333.034 81.6596 319.816 99.4509C319.009 100.863 318.132 102.253 317.233 103.644C316.841 104.426 316.402 105.164 316.079 105.99C312.204 115.917 314.995 125.953 322.331 133.904C329.136 141.29 345.053 145.244 347.544 132.079C347.632 131.677 347.621 131.26 347.513 130.862C347.405 130.464 347.202 130.094 346.92 129.78C346.638 129.466 346.284 129.217 345.884 129.051C345.485 128.884 345.051 128.806 344.615 128.821C337.486 129.168 333.08 132.644 328.236 125.389C325.56 121.457 323.922 117.546 325.583 112.898C328.005 106.229 336.91 101.363 344.038 101.145C364.269 100.494 381.823 113.397 383.646 132.97C385.653 154.498 374.418 174.092 362.215 191.623C359.909 195.033 357.302 198.357 354.741 201.637C356.633 192.361 356.379 183.889 349.228 174.874C341.685 165.359 325.514 156.496 312.55 161.971C298.501 167.879 297.948 180.109 304.845 191.666C305.66 192.808 306.706 193.787 307.923 194.547C309.14 195.307 310.505 195.834 311.939 196.096C313.372 196.359 314.847 196.352 316.278 196.076C317.709 195.801 319.068 195.262 320.278 194.49C324.891 191.123 327.752 187.235 327.867 182.803C329.596 183.503 331.163 184.514 332.481 185.779C337.971 191.254 338.94 195.729 338.317 202.962C337.533 212.108 336.379 219.255 331.95 227.64C330.19 230.534 328.715 233.573 327.544 236.72L335.802 244.497C341.016 243.237 346.252 239.544 350.774 237.85C359.332 234.635 367.152 234.396 376.149 233.94C379.408 233.949 382.61 234.755 385.44 236.278C388.27 237.801 390.632 239.989 392.296 242.629C392.542 243.031 392.765 243.444 392.965 243.867C390.671 244.072 388.452 244.743 386.461 245.835C384.469 246.926 382.753 248.412 381.431 250.189C380.352 251.428 379.585 252.88 379.185 254.438C378.786 255.996 378.765 257.618 379.124 259.184C379.483 260.751 380.213 262.22 381.26 263.484C382.307 264.747 383.642 265.772 385.168 266.481C396.91 272.694 414.165 270.174 416.102 255.163C417.717 242.759 411.904 229.53 400.093 223.143C392.28 218.527 382.941 216.765 373.842 218.19C377.348 215.757 380.901 213.368 384.568 211.152C402.262 200.508 424.661 187.778 446.714 191.601C465.168 194.794 483.461 209.979 479.678 229.617C478.248 237.177 473.357 245.518 464.545 246.778C459.286 247.538 453.542 244.389 450.105 240.696C446.322 236.633 450.105 232.571 450.313 228.053C450.295 227.7 450.203 227.354 450.042 227.034C449.882 226.715 449.655 226.429 449.376 226.193C449.097 225.956 448.771 225.774 448.417 225.657C448.063 225.54 447.688 225.491 447.314 225.511C433.473 227.922 436.172 243.172 445.284 249.646C454.396 256.119 464.292 258.921 475.272 254.794C499.032 245.931 506.16 208.676 490.935 191.015C471.72 168.683 441.431 165.642 414.303 173.766C417.348 170.464 420.278 167.119 423.092 163.643C425.399 160.776 427.706 157.8 429.874 154.693C440.093 148.611 450.935 144.179 461.893 143.354C476.872 142.066 491.933 144.776 505.353 151.174C500.904 154.377 497.33 158.532 494.926 163.296C492.296 168.292 494.396 173.549 498.294 177.199C508.329 186.627 522.216 190.471 534.557 182.412C544.015 176.243 550.474 166.728 546.876 155.627C541.132 138.053 517.141 128.582 499.655 126.323Z" fill="#CFAC65"/>
<path d="M291.466 13.7512C324.229 13.7159 356.738 19.1663 387.475 29.8481C392.313 26.3224 397.541 23.2997 403.069 20.8329C332.268 -6.69399 252.823 -6.95131 181.823 20.1161C186.853 22.9076 191.615 26.1056 196.056 29.6742C226.613 19.1095 258.914 13.7188 291.466 13.7512Z" fill="#CFAC65"/>
<path d="M563.069 174.657C562.01 181.949 559.371 188.959 555.318 195.251C573.353 248.573 572.755 305.936 553.611 358.914C555.403 360.68 556.953 362.65 558.224 364.779C560.045 367.88 561.67 371.079 563.092 374.359C589.636 310.139 589.636 238.878 563.092 174.657H563.069Z" fill="#CFAC65"/>
<path d="M24.7979 181.087C23.1601 178.915 21.6145 176.46 20.1843 174.049C-7.10563 239.564 -6.70944 312.434 21.2915 377.682C23.4369 372.309 26.0847 367.126 29.2039 362.194C29.5038 361.738 29.8499 361.325 30.1498 360.89C9.40388 304.966 9.40388 244.071 30.1498 188.147C28.212 185.757 26.4358 183.368 24.7979 181.087Z" fill="#CFAC65"/>
</g>
</svg>
