<svg width="333" height="274" viewBox="0 0 333 274" fill="none" xmlns="http://www.w3.org/2000/svg">
<g opacity="0.3">
<path d="M105.284 98.4857C108.355 95.716 110.447 92.1862 111.296 88.3428C112.145 84.4994 111.711 80.5152 110.051 76.8941C108.391 73.2731 105.578 70.1779 101.968 68.0002C98.3588 65.8225 94.115 64.6602 89.7737 64.6602C85.4323 64.6602 81.1885 65.8225 77.5791 68.0002C73.9697 70.1779 71.1569 73.2731 69.4965 76.8941C67.8362 80.5152 67.4029 84.4994 68.2514 88.3428C69.1 92.1862 71.1923 95.716 74.2637 98.4857C76.2998 100.325 78.7178 101.785 81.3791 102.781C84.0403 103.776 86.8928 104.289 89.7737 104.289C92.6545 104.289 95.5071 103.776 98.1684 102.781C100.83 101.785 103.247 100.325 105.284 98.4857Z" fill="#08132E"/>
<path d="M46.2061 158.011C57.3666 164.998 69.9456 161.665 78.9992 153.492C82.5246 150.328 84.4439 145.771 82.0449 141.44C79.8785 137.312 76.6533 133.71 72.6366 130.932C84.7641 125.384 98.3783 123.035 111.918 124.153C121.847 124.868 131.631 128.71 140.872 133.983C142.958 136.675 145.044 139.255 147.13 141.741C149.655 144.754 152.325 147.654 155.058 150.516C130.525 143.474 103.135 146.11 85.758 165.468C72.0108 180.778 78.436 213.074 99.9226 220.757C109.894 224.335 118.697 222.037 127.042 216.294C135.386 210.55 137.806 197.463 125.206 195.372C124.868 195.355 124.53 195.398 124.211 195.499C123.892 195.601 123.599 195.759 123.348 195.964C123.097 196.169 122.895 196.417 122.752 196.694C122.609 196.971 122.528 197.27 122.515 197.576C122.765 201.492 126.103 205.108 122.682 208.535C119.594 211.737 114.337 214.467 109.623 213.808C101.675 212.716 97.2523 205.485 95.9381 198.931C92.5378 181.983 109.039 168.802 125.748 165.977C145.691 162.7 165.947 173.735 181.947 182.925C185.264 184.808 188.476 186.917 191.647 189.026C183.419 187.792 174.974 189.319 167.908 193.32C157.227 198.856 151.991 210.268 153.451 221.077C155.183 234.089 170.786 236.274 181.425 230.888C182.804 230.271 184.01 229.382 184.954 228.286C185.898 227.189 186.556 225.915 186.879 224.558C187.202 223.2 187.181 221.794 186.819 220.445C186.456 219.096 185.76 217.838 184.784 216.765C183.589 215.224 182.037 213.936 180.236 212.99C178.435 212.044 176.428 211.462 174.354 211.285C174.535 210.918 174.736 210.559 174.959 210.211C176.466 207.926 178.603 206.031 181.162 204.711C183.721 203.391 186.614 202.691 189.561 202.679C197.718 203.074 204.769 203.281 212.508 206.068C216.68 207.537 221.332 210.739 226.068 211.831L233.536 205.089C232.47 202.361 231.129 199.726 229.531 197.218C225.525 189.949 224.482 183.753 223.773 175.826C223.21 169.555 224.086 165.675 229.072 160.93C230.253 159.823 231.673 158.945 233.244 158.35C233.244 162.116 235.893 165.563 240.086 168.481C241.18 169.15 242.409 169.617 243.703 169.856C244.997 170.095 246.331 170.101 247.627 169.873C248.924 169.646 250.158 169.19 251.259 168.531C252.359 167.872 253.305 167.023 254.042 166.033C260.3 156.015 259.779 145.319 247.074 140.291C235.351 135.546 220.727 143.229 213.906 151.477C207.439 159.292 207.209 166.542 208.941 174.677C206.604 171.833 204.331 169.027 202.161 165.996C191.105 150.931 180.987 133.983 182.781 115.151C184.429 98.2033 200.305 86.9047 218.599 87.5638C225.108 87.7521 233.202 91.9702 235.288 97.7514C236.79 101.781 235.288 105.171 232.91 108.579C228.467 114.869 224.566 111.856 218.099 111.555C217.704 111.542 217.312 111.61 216.95 111.754C216.589 111.898 216.269 112.114 216.014 112.386C215.759 112.658 215.575 112.979 215.478 113.324C215.38 113.669 215.37 114.03 215.45 114.379C217.702 125.791 232.138 122.364 238.229 115.961C244.863 109.069 247.387 100.369 243.883 91.7631C243.591 91.0475 243.194 90.4072 242.84 89.7293C242.026 88.5241 241.254 87.3189 240.503 86.0949C228.571 70.6721 198.677 67.9604 182.802 78.0728C159.856 92.7046 158.145 119.144 166.114 141.515C163.736 139.632 161.337 137.636 158.854 135.753C155.496 133.211 151.908 130.744 148.132 128.39C142.346 120.292 138.41 111.233 136.554 101.744C134.468 89.3527 138.056 77.4137 144.085 66.5858C147.392 70.3233 151.611 73.3202 156.413 75.3424C158.27 76.0164 160.296 76.2183 162.271 75.9261C164.246 75.634 166.094 74.859 167.616 73.6852C175.96 66.1527 181.175 57.1137 176.523 46.4741C172.873 38.0942 162.338 30.5052 152.012 31.9364C133.029 34.5351 123.412 55.3248 120.512 70.2956C117.3 86.9612 122.869 104.192 131.714 119.483C114.859 111.743 96.0007 107.148 77.977 109.389C62.1645 111.272 40.4277 119.558 35.3793 134.679C31.8122 144.509 37.6532 152.663 46.2061 158.011Z" fill="#08132E"/>
<path d="M451.845 109.506C433.822 107.265 414.964 111.86 398.129 119.6C406.953 104.234 412.523 87.0783 409.31 70.4127C406.411 55.4419 396.794 34.6334 377.831 32.0536C367.401 30.6224 356.971 38.2113 353.299 46.5912C348.647 57.2308 353.821 66.1945 362.207 73.8023C363.728 74.9761 365.576 75.751 367.551 76.0432C369.526 76.3354 371.552 76.1335 373.409 75.4594C378.211 73.4373 382.431 70.4404 385.738 66.7029C391.766 77.5308 395.438 89.4698 393.289 101.861C391.426 111.351 387.483 120.41 381.691 128.507C377.915 130.861 374.327 133.328 370.968 135.87C368.507 137.753 366.094 139.674 363.73 141.632C371.573 119.261 369.883 92.8218 346.916 78.19C331.062 68.0776 301.168 70.7892 289.215 86.212C288.485 87.436 287.692 88.6412 286.879 89.8464C286.524 90.5243 286.128 91.1646 285.835 91.8802C282.331 100.486 284.855 109.186 291.489 116.078C297.643 122.481 312.036 125.908 314.289 114.496C314.369 114.147 314.359 113.786 314.261 113.441C314.164 113.096 313.98 112.775 313.725 112.503C313.47 112.231 313.15 112.015 312.789 111.871C312.427 111.727 312.035 111.659 311.64 111.672C305.194 111.973 301.21 114.986 296.829 108.696C294.409 105.288 292.928 101.898 294.43 97.8685C296.62 92.0873 304.673 87.8692 311.119 87.6809C329.414 87.1159 345.289 98.3016 346.937 115.268C348.752 133.93 338.592 150.916 327.557 166.113C325.471 169.069 323.114 171.95 320.798 174.794C322.509 166.753 322.279 159.409 315.812 151.594C308.991 143.346 294.367 135.663 282.644 140.408C269.939 145.53 269.439 156.132 275.676 166.15C276.413 167.14 277.359 167.989 278.459 168.648C279.56 169.307 280.794 169.763 282.091 169.991C283.388 170.218 284.721 170.212 286.015 169.973C287.309 169.734 288.539 169.267 289.632 168.598C293.804 165.68 296.391 162.309 296.495 158.467C298.059 159.074 299.476 159.95 300.667 161.047C305.632 165.793 306.508 169.672 305.945 175.943C305.236 183.871 304.193 190.066 300.188 197.335C298.596 199.843 297.262 202.478 296.203 205.206L303.671 211.948C308.386 210.856 313.121 207.654 317.21 206.186C324.949 203.399 332.021 203.191 340.157 202.796C343.105 202.804 346 203.503 348.559 204.823C351.119 206.143 353.255 208.04 354.759 210.328C354.982 210.676 355.184 211.035 355.364 211.402C353.29 211.579 351.283 212.161 349.482 213.107C347.681 214.053 346.13 215.341 344.934 216.882C343.958 217.956 343.264 219.215 342.903 220.565C342.542 221.915 342.523 223.322 342.848 224.68C343.173 226.037 343.833 227.311 344.779 228.407C345.726 229.502 346.934 230.39 348.313 231.005C358.932 236.391 374.535 234.206 376.288 221.194C377.748 210.441 372.491 198.973 361.81 193.437C354.744 189.435 346.299 187.907 338.071 189.143C341.242 187.034 344.454 184.963 347.771 183.042C363.771 173.815 384.027 162.78 403.97 166.094C420.659 168.862 437.201 182.025 433.78 199.049C432.487 205.602 428.064 212.833 420.095 213.925C415.339 214.584 410.145 211.854 407.037 208.652C403.615 205.131 407.037 201.61 407.224 197.693C407.208 197.387 407.125 197.087 406.98 196.81C406.835 196.533 406.63 196.285 406.378 196.08C406.126 195.875 405.831 195.717 405.511 195.616C405.19 195.515 404.851 195.472 404.512 195.489C391.996 197.58 394.437 210.799 402.677 216.411C410.917 222.023 419.866 224.452 429.796 220.874C451.282 213.191 457.728 180.895 443.96 165.586C426.583 146.227 399.193 143.591 374.661 150.634C377.414 147.771 380.063 144.871 382.608 141.858C384.695 139.373 386.781 136.793 388.742 134.1C397.983 128.827 407.787 124.985 417.696 124.27C431.242 123.153 444.863 125.503 456.998 131.049C452.975 133.826 449.743 137.428 447.569 141.557C445.191 145.888 447.089 150.445 450.615 153.609C459.689 161.782 472.247 165.115 483.408 158.128C491.961 152.78 497.802 144.532 494.547 134.91C489.353 119.675 467.658 111.465 451.845 109.506Z" fill="#08132E"/>
<path d="M167.304 406.262C165.787 405.081 163.938 404.301 161.961 404.008C159.984 403.716 157.956 403.922 156.101 404.605C151.295 406.62 147.074 409.618 143.773 413.361C137.744 402.533 134.093 390.594 136.242 378.203C138.111 368.747 142.046 359.721 147.82 351.651C151.595 349.298 155.183 346.831 158.542 344.288C161.024 342.405 163.423 340.522 165.802 338.526C157.937 360.879 159.543 387.336 182.49 401.968C198.365 412.081 228.259 409.369 240.191 393.946C240.942 392.722 241.714 391.498 242.527 390.312C242.882 389.634 243.278 388.994 243.571 388.278C247.075 379.672 244.551 370.972 237.917 364.08C231.784 357.677 217.39 354.25 215.137 365.662C215.058 366.011 215.068 366.372 215.165 366.717C215.263 367.062 215.447 367.383 215.702 367.655C215.957 367.927 216.277 368.143 216.638 368.287C216.999 368.431 217.392 368.499 217.787 368.486C224.233 368.166 228.217 365.153 232.598 371.462C234.997 374.87 236.478 378.26 234.976 382.271C232.786 388.071 224.733 392.289 218.287 392.477C199.992 393.042 184.117 381.857 182.469 364.89C180.675 346.228 190.814 329.242 201.849 314.046C203.935 311.089 206.292 308.227 208.629 305.383C206.897 313.424 207.127 320.768 213.594 328.583C220.415 336.812 235.038 344.496 246.762 339.769C259.466 334.647 259.967 324.026 253.73 314.008C252.991 313.02 252.044 312.173 250.943 311.515C249.841 310.858 248.607 310.404 247.31 310.178C246.014 309.953 244.681 309.96 243.387 310.2C242.094 310.441 240.866 310.909 239.774 311.579C235.602 314.497 233.015 317.868 232.931 321.71C231.361 321.115 229.941 320.237 228.759 319.13C223.774 314.384 222.897 310.486 223.461 304.234C224.17 296.307 225.213 290.111 229.218 282.842C230.813 280.332 232.153 277.698 233.224 274.971L225.755 268.229C221.02 269.321 216.285 272.523 212.196 273.992C204.457 276.779 197.406 276.986 189.249 277.381C186.302 277.369 183.409 276.669 180.85 275.349C178.291 274.029 176.154 272.135 174.646 269.849C174.417 269.491 174.229 269.133 174.042 268.775C176.116 268.598 178.123 268.016 179.924 267.07C181.725 266.124 183.276 264.836 184.472 263.295C185.448 262.223 186.144 260.964 186.506 259.615C186.869 258.266 186.89 256.86 186.567 255.502C186.244 254.145 185.586 252.871 184.642 251.774C183.698 250.678 182.491 249.789 181.113 249.172C170.474 243.786 154.87 245.971 153.139 258.964C151.679 269.736 156.915 281.185 167.596 286.74C174.664 290.737 183.104 292.271 191.335 291.053C188.164 293.143 184.952 295.214 181.635 297.135C165.635 306.362 145.379 317.397 125.436 314.083C108.747 311.315 92.2257 298.152 95.626 281.129C96.9402 274.575 101.363 267.344 109.311 266.252C114.088 265.593 119.282 268.323 122.369 271.506C125.791 275.046 122.369 278.568 122.203 282.484C122.216 282.79 122.296 283.089 122.439 283.366C122.582 283.643 122.785 283.891 123.036 284.096C123.286 284.301 123.58 284.459 123.899 284.561C124.218 284.662 124.556 284.705 124.894 284.688C137.41 282.579 134.99 269.378 126.729 263.747C118.468 258.117 109.54 255.725 99.6103 259.303C78.1237 266.968 71.6986 299.282 85.4459 314.592C102.823 333.95 130.213 336.586 154.745 329.544C152.013 332.406 149.342 335.306 146.818 338.319C144.732 340.805 142.646 343.384 140.56 346.077C131.319 351.35 121.535 355.192 111.605 355.907C98.066 357.025 84.4519 354.676 72.3244 349.128C76.341 346.35 79.5662 342.748 81.7326 338.62C84.1316 334.289 82.2124 329.732 78.6869 326.549C69.6333 318.395 57.0543 315.062 45.8938 322.049C37.3409 327.397 31.4998 335.645 34.7541 345.268C39.8441 360.333 61.5394 368.599 77.3519 370.558C95.3756 372.799 114.234 368.204 131.089 360.464C122.244 375.831 116.674 392.986 119.887 409.651C122.787 424.622 132.403 445.431 151.387 448.011C161.713 449.442 172.248 441.853 175.898 433.473C180.967 422.852 175.71 413.907 167.304 406.262Z" fill="#08132E"/>
<path d="M483.304 322.092C472.143 315.105 459.585 318.439 450.511 326.592C446.985 329.775 445.087 334.332 447.465 338.663C449.638 342.792 452.871 346.394 456.894 349.171C444.758 354.717 431.138 357.067 417.592 355.95C407.683 355.235 397.879 351.393 388.637 346.12C386.551 343.428 384.57 340.848 382.504 338.362C379.959 335.349 377.31 332.449 374.556 329.587C399.089 336.63 426.479 333.993 443.856 314.635C457.624 299.325 451.178 267.011 429.691 259.346C419.72 255.768 410.917 258.066 402.572 263.791C394.228 269.515 391.829 282.622 404.408 284.731C404.747 284.749 405.086 284.705 405.406 284.604C405.727 284.503 406.021 284.345 406.274 284.14C406.526 283.935 406.73 283.687 406.876 283.41C407.021 283.133 407.104 282.833 407.12 282.527C406.849 278.611 403.511 275.089 406.932 271.549C410.041 268.366 415.277 265.636 419.991 266.295C427.96 267.387 432.382 274.618 433.676 281.172C437.097 298.12 420.575 311.302 403.866 314.126C383.923 317.403 363.667 306.368 347.667 297.178C344.35 295.295 341.137 293.186 337.967 291.096C346.197 292.315 354.639 290.782 361.706 286.783C372.387 281.228 377.644 269.835 376.184 259.007C374.431 246.014 358.827 243.829 348.209 249.215C346.829 249.83 345.621 250.718 344.675 251.814C343.729 252.909 343.068 254.183 342.744 255.541C342.419 256.898 342.438 258.305 342.799 259.655C343.16 261.005 343.854 262.264 344.83 263.338C346.025 264.879 347.577 266.167 349.378 267.113C351.179 268.059 353.186 268.641 355.26 268.818C355.072 269.176 354.885 269.534 354.655 269.892C353.151 272.18 351.014 274.077 348.455 275.397C345.896 276.717 343 277.416 340.053 277.424C331.896 277.029 324.824 276.822 317.106 274.035C312.934 272.566 308.282 269.364 303.567 268.272L296.099 275.014C297.162 277.74 298.496 280.375 300.083 282.885C304.089 290.154 305.132 296.35 305.841 304.278C306.404 310.53 305.528 314.428 300.563 319.173C299.372 320.27 297.955 321.147 296.391 321.753C296.391 317.987 293.721 314.54 289.528 311.622C288.435 310.952 287.208 310.484 285.914 310.243C284.621 310.003 283.288 309.996 281.991 310.221C280.695 310.447 279.46 310.901 278.359 311.559C277.257 312.216 276.31 313.063 275.572 314.051C269.314 324.069 269.835 334.765 282.54 339.812C294.263 344.539 308.887 336.856 315.708 328.626C322.175 320.811 322.404 313.561 320.694 305.426C323.009 308.27 325.304 311.076 327.453 314.089C338.509 329.153 348.647 346.215 346.832 364.933C345.184 381.881 329.309 393.18 311.015 392.521C304.506 392.332 296.412 388.114 294.326 382.314C292.824 378.303 294.326 374.913 296.725 371.505C301.147 365.196 305.069 368.209 311.536 368.53C311.931 368.543 312.323 368.474 312.684 368.33C313.046 368.186 313.366 367.97 313.621 367.698C313.876 367.426 314.059 367.105 314.157 366.76C314.255 366.415 314.265 366.054 314.185 365.705C311.932 354.293 297.497 357.72 291.384 364.123C284.751 371.015 282.227 379.715 285.731 388.321C286.023 389.037 286.42 389.677 286.774 390.355C287.588 391.541 288.381 392.765 289.111 393.989C301.064 409.412 330.957 412.124 346.812 402.011C369.758 387.38 371.469 360.922 363.625 338.569C365.99 340.528 368.403 342.448 370.864 344.331C374.223 346.874 377.811 349.341 381.586 351.694C387.379 359.791 391.322 368.85 393.185 378.341C395.271 390.731 391.662 402.671 385.633 413.498C382.332 409.756 378.111 406.758 373.305 404.742C371.45 404.059 369.422 403.853 367.445 404.145C365.468 404.438 363.619 405.218 362.103 406.399C353.758 413.932 348.543 422.952 353.195 433.61C356.866 441.99 367.401 449.579 377.727 448.148C396.711 445.549 406.306 424.759 409.206 409.789C412.419 393.123 406.849 375.893 398.025 360.602C414.859 368.341 433.718 372.936 451.741 370.695C467.554 368.812 489.291 360.526 494.339 345.405C497.697 335.688 491.794 327.44 483.304 322.092Z" fill="#08132E"/>
<path d="M263.576 11.9204C293.205 11.8899 322.603 16.6146 350.399 25.8743C354.774 22.818 359.502 20.1978 364.501 18.0593C300.475 -5.8028 228.632 -6.02586 164.425 17.438C168.974 19.8578 173.28 22.6301 177.296 25.7236C204.93 16.5654 234.14 11.8924 263.576 11.9204Z" fill="#08132E"/>
<path d="M22.4256 156.976C20.9445 155.093 19.5468 152.965 18.2534 150.875C-6.42587 207.668 -6.06758 270.837 19.2547 327.399C21.1948 322.741 23.5893 318.247 26.4101 313.972C26.6813 313.576 26.9943 313.219 27.2655 312.842C8.50425 264.363 8.50425 211.575 27.2655 163.096C25.5131 161.025 23.9068 158.954 22.4256 156.976Z" fill="#08132E"/>
<path d="M231.033 238.801C231.029 244.604 232.932 250.278 236.501 255.106C240.069 259.933 245.144 263.696 251.082 265.92C257.021 268.143 263.556 268.727 269.862 267.597C276.168 266.467 281.961 263.674 286.509 259.572C291.056 255.47 294.154 250.242 295.409 244.55C296.665 238.858 296.023 232.958 293.563 227.596C291.104 222.234 286.938 217.651 281.593 214.426C276.248 211.202 269.963 209.48 263.534 209.48C254.918 209.48 246.655 212.569 240.56 218.067C234.465 223.565 231.039 231.023 231.033 238.801Z" fill="#08132E"/>
</g>
</svg>
