<svg width="41" height="40" viewBox="0 0 41 40" fill="none" xmlns="http://www.w3.org/2000/svg">
<rect x="0.641602" y="0.5" width="39" height="39" rx="7.5" stroke="#B8B8B8"/>
<path fill-rule="evenodd" clip-rule="evenodd" d="M15.1934 13.6366C14.803 13.2461 14.17 13.2461 13.7796 13.6366C13.3892 14.0272 13.3892 14.6603 13.7796 15.0509L18.728 20.0007L13.7799 24.9504C13.3895 25.3409 13.3895 25.9741 13.7799 26.3646C14.1703 26.7551 14.8033 26.7551 15.1937 26.3646L20.1418 21.415L25.0899 26.3646C25.4804 26.7551 26.1133 26.7551 26.5037 26.3646C26.8941 25.974 26.8941 25.3409 26.5037 24.9504L21.5556 20.0007L26.504 15.0509C26.8944 14.6603 26.8944 14.0272 26.504 13.6367C26.1136 13.2461 25.4806 13.2461 25.0902 13.6367L20.1418 18.5865L15.1934 13.6366Z" fill="#B8B8B8"/>
</svg>
