<svg width="72" height="48" viewBox="0 0 72 48" fill="none" xmlns="http://www.w3.org/2000/svg">
<rect width="72" height="48" rx="15" fill="#CFAC65"/>
<g clip-path="url(#clip0_2730_2266)">
<path fill-rule="evenodd" clip-rule="evenodd" d="M31.0523 17.6362C30.6619 17.2456 30.0289 17.2456 29.6385 17.6362C29.2481 18.0267 29.2481 18.6598 29.6385 19.0504L34.5869 24.0003L29.6388 28.9499C29.2484 29.3404 29.2484 29.9736 29.6388 30.3641C30.0292 30.7546 30.6622 30.7546 31.0526 30.3641L36.0007 25.4145L40.9488 30.3641C41.3392 30.7546 41.9722 30.7546 42.3626 30.3641C42.753 29.9736 42.753 29.3404 42.3626 28.9499L37.4145 24.0003L42.3629 19.0504C42.7533 18.6599 42.7533 18.0267 42.3629 17.6362C41.9725 17.2456 41.3395 17.2456 40.9491 17.6362L36.0007 22.586L31.0523 17.6362Z" fill="#212121"/>
</g>
<defs>
<clipPath id="clip0_2730_2266">
<rect width="24" height="24" fill="white" transform="translate(24 12)"/>
</clipPath>
</defs>
</svg>
