<svg width="24" height="24" viewBox="0 0 24 24" fill="none" xmlns="http://www.w3.org/2000/svg">
<path fill-rule="evenodd" clip-rule="evenodd" d="M16.0711 7.34315L9.70716 13.7071C9.31664 14.0976 8.68347 14.0976 8.29295 13.7071L1.92898 7.34315C1.53846 6.95262 1.53846 6.31946 1.92898 5.92893C2.31951 5.53841 2.95268 5.53841 3.3432 5.92893L8.00005 10.5858L8.00005 3.656e-07L10.0001 2.78178e-07L10.0001 10.5858L14.6569 5.92893C15.0474 5.53841 15.6806 5.53841 16.0711 5.92893C16.4616 6.31946 16.4616 6.95262 16.0711 7.34315Z" fill="white"/>
<path fill-rule="evenodd" clip-rule="evenodd" d="M2 14V17C2 17.5523 2.44772 18 3 18H15C15.5523 18 16 17.5523 16 17V14H18V17C18 18.6569 16.6569 20 15 20H3C1.34315 20 0 18.6569 0 17V14H2Z" fill="white"/>
</svg>
