<svg width="16" height="18" viewBox="0 0 16 18" fill="none" xmlns="http://www.w3.org/2000/svg">
<path d="M15.1111 17.8889H0.888889C0.653141 17.8889 0.427048 17.7952 0.260349 17.6285C0.0936505 17.4618 0 17.2358 0 17V1C0 0.764255 0.0936505 0.538163 0.260349 0.371464C0.427048 0.204765 0.653141 0.111115 0.888889 0.111115H15.1111C15.3469 0.111115 15.573 0.204765 15.7397 0.371464C15.9064 0.538163 16 0.764255 16 1V17C16 17.2358 15.9064 17.4618 15.7397 17.6285C15.573 17.7952 15.3469 17.8889 15.1111 17.8889ZM4.44444 4.55556V6.33334H11.5556V4.55556H4.44444ZM4.44444 8.11112V9.88889H11.5556V8.11112H4.44444ZM4.44444 11.6667V13.4444H11.5556V11.6667H4.44444Z" fill="#212121"/>
</svg>
