<svg width="24" height="24" viewBox="0 0 24 24" fill="none" xmlns="http://www.w3.org/2000/svg">
<path fill-rule="evenodd" clip-rule="evenodd" d="M19.0711 9.34315L12.7072 15.7071C12.3166 16.0976 11.6835 16.0976 11.2929 15.7071L4.92898 9.34315C4.53846 8.95262 4.53846 8.31946 4.92898 7.92893C5.31951 7.53841 5.95268 7.53841 6.3432 7.92893L11.0001 12.5858L11.0001 2L13.0001 2L13.0001 12.5858L17.6569 7.92893C18.0474 7.53841 18.6806 7.53841 19.0711 7.92893C19.4616 8.31946 19.4616 8.95262 19.0711 9.34315Z" fill="#212121"/>
<path fill-rule="evenodd" clip-rule="evenodd" d="M5 16V19C5 19.5523 5.44772 20 6 20H18C18.5523 20 19 19.5523 19 19V16H21V19C21 20.6569 19.6569 22 18 22H6C4.34315 22 3 20.6569 3 19V16H5Z" fill="#212121"/>
</svg>
