<svg width="14" height="14" viewBox="0 0 14 14" fill="none" xmlns="http://www.w3.org/2000/svg">
<path fill-rule="evenodd" clip-rule="evenodd" d="M2.05148 0.636031C1.66107 0.245507 1.0281 0.245507 0.63769 0.636031C0.247283 1.02656 0.247283 1.65972 0.63769 2.05024L5.5861 7.00014L0.637966 11.9498C0.247559 12.3403 0.247559 12.9734 0.637966 13.364C1.02837 13.7545 1.66135 13.7545 2.05176 13.364L6.99989 8.41435L11.948 13.364C12.3384 13.7545 12.9714 13.7545 13.3618 13.364C13.7522 12.9734 13.7522 12.3403 13.3618 11.9497L8.41368 7.00014L13.3621 2.05026C13.7525 1.65974 13.7525 1.02657 13.3621 0.636046C12.9717 0.245521 12.3387 0.245522 11.9483 0.636045L6.99989 5.58592L2.05148 0.636031Z" fill="#212121"/>
</svg>
