<svg width="18" height="16" viewBox="0 0 18 16" fill="none" xmlns="http://www.w3.org/2000/svg">
<path fill-rule="evenodd" clip-rule="evenodd" d="M0 2C0 1.44772 0.447715 1 1 1H17C17.5523 1 18 1.44772 18 2C18 2.55228 17.5523 3 17 3H1C0.447715 3 0 2.55228 0 2Z" fill="#212121"/>
<path fill-rule="evenodd" clip-rule="evenodd" d="M0 8C0 7.44772 0.447715 7 1 7H17C17.5523 7 18 7.44772 18 8C18 8.55228 17.5523 9 17 9H1C0.447715 9 0 8.55228 0 8Z" fill="#212121"/>
<path fill-rule="evenodd" clip-rule="evenodd" d="M0 14C0 13.4477 0.447715 13 1 13H17C17.5523 13 18 13.4477 18 14C18 14.5523 17.5523 15 17 15H1C0.447715 15 0 14.5523 0 14Z" fill="#212121"/>
<path d="M6 2C6 3.10457 5.10457 4 4 4C2.89543 4 2 3.10457 2 2C2 0.89543 2.89543 0 4 0C5.10457 0 6 0.89543 6 2Z" fill="#212121"/>
<path d="M13 8C13 9.10457 12.1046 10 11 10C9.89543 10 9 9.10457 9 8C9 6.89543 9.89543 6 11 6C12.1046 6 13 6.89543 13 8Z" fill="#212121"/>
<path d="M6 14C6 15.1046 5.10457 16 4 16C2.89543 16 2 15.1046 2 14C2 12.8954 2.89543 12 4 12C5.10457 12 6 12.8954 6 14Z" fill="#212121"/>
</svg>
