<svg width="366" height="318" viewBox="0 0 366 318" fill="none" xmlns="http://www.w3.org/2000/svg">
<g opacity="0.3">
<path d="M127.935 113.591C131.667 110.397 134.21 106.326 135.241 101.893C136.272 97.46 135.746 92.8647 133.728 88.6883C131.711 84.5119 128.292 80.9421 123.906 78.4304C119.52 75.9188 114.364 74.5781 109.088 74.5781C103.813 74.5781 98.6558 75.9188 94.2698 78.4304C89.8838 80.9421 86.4659 84.5119 84.4483 88.6883C82.4307 92.8647 81.9041 97.46 82.9353 101.893C83.9664 106.326 86.5089 110.397 90.2411 113.591C92.7153 115.713 95.6535 117.396 98.8874 118.545C102.121 119.693 105.587 120.284 109.088 120.284C112.589 120.284 116.055 119.693 119.289 118.545C122.523 117.396 125.461 115.713 127.935 113.591Z" fill="#08132E"/>
<path d="M56.1471 182.244C69.7088 190.302 84.9943 186.458 95.9958 177.032C100.28 173.383 102.612 168.127 99.6968 163.131C97.0643 158.37 93.1451 154.216 88.2643 151.012C103.001 144.613 119.544 141.904 135.997 143.193C148.063 144.018 159.952 148.449 171.181 154.53C173.716 157.636 176.251 160.612 178.786 163.479C181.853 166.954 185.098 170.299 188.419 173.6C158.608 165.477 125.325 168.518 104.209 190.845C87.5038 208.503 95.3114 245.751 121.421 254.612C133.538 258.739 144.235 256.089 154.375 249.465C164.514 242.841 167.455 227.746 152.144 225.335C151.734 225.314 151.323 225.364 150.935 225.481C150.547 225.599 150.191 225.781 149.887 226.018C149.582 226.254 149.336 226.54 149.162 226.859C148.988 227.179 148.89 227.524 148.874 227.876C149.178 232.394 153.234 236.564 149.077 240.517C145.325 244.209 138.937 247.358 133.208 246.598C123.55 245.338 118.176 236.998 116.579 229.44C112.447 209.893 132.499 194.689 152.803 191.431C177.037 187.652 201.651 200.38 221.093 210.979C225.124 213.151 229.028 215.583 232.881 218.016C222.882 216.592 212.621 218.354 204.034 222.968C191.055 229.353 184.692 242.515 186.467 254.982C188.571 269.99 207.532 272.509 220.46 266.297C222.134 265.586 223.6 264.56 224.747 263.296C225.895 262.032 226.694 260.562 227.087 258.996C227.479 257.43 227.454 255.809 227.013 254.253C226.572 252.696 225.727 251.245 224.541 250.008C223.088 248.231 221.202 246.746 219.014 245.655C216.826 244.563 214.387 243.892 211.866 243.688C212.086 243.264 212.331 242.851 212.602 242.45C214.434 239.813 217.03 237.628 220.14 236.105C223.249 234.583 226.765 233.776 230.346 233.762C240.257 234.218 248.825 234.457 258.23 237.671C263.3 239.366 268.953 243.058 274.707 244.318L283.782 236.542C282.486 233.395 280.857 230.356 278.915 227.463C274.048 219.08 272.78 211.934 271.918 202.79C271.234 195.558 272.299 191.084 278.357 185.611C279.793 184.333 281.518 183.321 283.427 182.635C283.427 186.979 286.646 190.953 291.741 194.32C293.07 195.091 294.564 195.63 296.136 195.906C297.709 196.181 299.329 196.188 300.905 195.926C302.481 195.663 303.98 195.137 305.318 194.377C306.655 193.617 307.805 192.638 308.7 191.496C316.305 179.942 315.671 167.605 300.233 161.806C285.987 156.333 268.217 165.195 259.928 174.708C252.07 183.721 251.791 192.083 253.895 201.466C251.056 198.186 248.293 194.95 245.657 191.453C232.222 174.078 219.927 154.53 222.107 132.811C224.11 113.264 243.401 100.233 265.632 100.993C273.541 101.21 283.376 106.075 285.911 112.743C287.736 117.391 285.911 121.3 283.021 125.231C277.622 132.485 272.882 129.01 265.023 128.663C264.544 128.648 264.067 128.727 263.628 128.893C263.189 129.059 262.8 129.308 262.49 129.622C262.18 129.935 261.957 130.305 261.838 130.704C261.72 131.102 261.708 131.518 261.804 131.921C264.542 145.083 282.083 141.13 289.485 133.745C297.546 125.796 300.613 115.762 296.355 105.836C296 105.011 295.518 104.272 295.087 103.49C294.099 102.1 293.161 100.71 292.248 99.2986C277.749 81.5106 241.423 78.383 222.133 90.0462C194.249 106.922 192.17 137.416 201.854 163.218C198.964 161.046 196.049 158.744 193.032 156.572C188.951 153.64 184.591 150.795 180.003 148.08C172.972 138.74 168.189 128.292 165.934 117.347C163.399 103.056 167.759 89.2861 175.085 76.7976C179.104 81.1083 184.231 84.5648 190.066 86.897C192.322 87.6745 194.784 87.9073 197.184 87.5703C199.584 87.2334 201.83 86.3395 203.679 84.9857C213.818 76.2981 220.156 65.8728 214.503 53.6015C210.067 43.9365 197.265 35.1836 184.718 36.8343C161.65 39.8315 149.964 63.8096 146.44 81.0763C142.537 100.298 149.305 120.171 160.053 137.807C139.571 128.88 116.655 123.581 94.7537 126.165C75.5391 128.337 49.1254 137.894 42.9909 155.334C38.6562 166.672 45.7539 176.076 56.1471 182.244Z" fill="#08132E"/>
<path d="M549.061 126.298C527.16 123.713 504.244 129.013 483.787 137.939C494.51 120.217 501.278 100.43 497.374 81.209C493.851 63.9423 482.165 39.9426 459.123 36.9671C446.448 35.3164 433.774 44.0692 429.312 53.7342C423.659 66.0055 429.946 76.3439 440.136 85.1184C441.985 86.4722 444.231 87.3661 446.631 87.703C449.031 88.04 451.492 87.8072 453.749 87.0297C459.584 84.6975 464.711 81.241 468.73 76.9303C476.056 89.4188 480.517 103.189 477.906 117.48C475.642 128.426 470.851 138.874 463.812 148.213C459.224 150.927 454.864 153.773 450.783 156.705C447.792 158.877 444.86 161.092 441.987 163.351C451.518 137.548 449.465 107.055 421.555 90.179C402.29 78.5158 365.965 81.6433 351.44 99.4313C350.553 100.843 349.589 102.233 348.601 103.623C348.17 104.405 347.688 105.143 347.333 105.969C343.075 115.894 346.142 125.929 354.203 133.878C361.681 141.262 379.172 145.215 381.909 132.054C382.006 131.651 381.994 131.235 381.875 130.836C381.756 130.438 381.533 130.068 381.223 129.754C380.913 129.441 380.524 129.191 380.085 129.025C379.647 128.859 379.169 128.781 378.69 128.796C370.857 129.143 366.015 132.618 360.692 125.364C357.752 121.433 355.952 117.523 357.777 112.875C360.439 106.208 370.223 101.343 378.056 101.125C400.287 100.474 419.578 113.375 421.581 132.944C423.786 154.468 411.441 174.058 398.031 191.586C395.496 194.996 392.632 198.319 389.818 201.598C391.897 192.324 391.618 183.854 383.76 174.84C375.471 165.327 357.701 156.466 343.455 161.939C328.017 167.847 327.409 180.075 334.988 191.629C335.883 192.771 337.033 193.75 338.37 194.51C339.708 195.27 341.208 195.796 342.783 196.058C344.359 196.321 345.979 196.314 347.552 196.038C349.124 195.763 350.618 195.224 351.947 194.453C357.017 191.086 360.16 187.198 360.287 182.768C362.187 183.467 363.909 184.478 365.356 185.743C371.389 191.217 372.454 195.691 371.77 202.923C370.908 212.067 369.64 219.213 364.773 227.596C362.839 230.489 361.219 233.528 359.932 236.675L369.007 244.45C374.736 243.19 380.49 239.498 385.458 237.804C394.863 234.59 403.456 234.351 413.342 233.895C416.924 233.904 420.442 234.71 423.552 236.233C426.662 237.755 429.258 239.943 431.087 242.582C431.357 242.984 431.602 243.397 431.822 243.82C429.301 244.025 426.862 244.696 424.674 245.787C422.486 246.879 420.6 248.364 419.147 250.141C417.962 251.38 417.118 252.832 416.679 254.389C416.24 255.946 416.217 257.569 416.612 259.135C417.007 260.7 417.809 262.17 418.959 263.433C420.109 264.696 421.577 265.721 423.254 266.43C436.156 272.642 455.117 270.122 457.247 255.114C459.021 242.713 452.633 229.486 439.655 223.1C431.068 218.484 420.806 216.723 410.807 218.148C414.66 215.716 418.564 213.327 422.595 211.111C442.037 200.469 466.651 187.742 490.885 191.564C511.164 194.757 531.266 209.939 527.109 229.573C525.537 237.131 520.163 245.471 510.48 246.731C504.7 247.491 498.388 244.342 494.611 240.649C490.454 236.588 494.611 232.526 494.84 228.009C494.82 227.656 494.719 227.31 494.543 226.991C494.366 226.671 494.117 226.385 493.811 226.149C493.504 225.913 493.146 225.731 492.757 225.614C492.368 225.497 491.956 225.447 491.544 225.468C476.335 227.879 479.301 243.125 489.313 249.598C499.326 256.07 510.201 258.872 522.267 254.745C548.377 245.884 556.21 208.635 539.479 190.978C518.363 168.65 485.08 165.61 455.27 173.733C458.616 170.431 461.835 167.087 464.927 163.612C467.462 160.745 469.997 157.769 472.38 154.663C483.61 148.582 495.524 144.151 507.565 143.326C524.025 142.038 540.576 144.748 555.322 151.145C550.434 154.347 546.506 158.502 543.865 163.264C540.975 168.259 543.282 173.515 547.566 177.164C558.592 186.59 573.853 190.435 587.414 182.377C597.807 176.209 604.905 166.696 600.951 155.597C594.639 138.026 568.276 128.557 549.061 126.298Z" fill="#08132E"/>
<path d="M203.3 468.567C201.457 467.204 199.21 466.305 196.808 465.968C194.406 465.63 191.941 465.868 189.687 466.656C183.846 468.98 178.717 472.438 174.706 476.755C167.38 464.267 162.944 450.496 165.555 436.205C167.826 425.298 172.608 414.888 179.624 405.581C184.212 402.866 188.572 400.021 192.653 397.089C195.67 394.917 198.585 392.745 201.474 390.443C191.918 416.224 193.87 446.739 221.754 463.615C241.044 475.278 277.37 472.151 291.869 454.363C292.782 452.951 293.72 451.539 294.708 450.171C295.139 449.389 295.621 448.65 295.976 447.825C300.235 437.899 297.167 427.865 289.106 419.916C281.654 412.531 264.163 408.579 261.425 421.74C261.329 422.143 261.34 422.559 261.459 422.958C261.578 423.356 261.801 423.726 262.111 424.039C262.421 424.353 262.81 424.602 263.249 424.769C263.688 424.935 264.165 425.013 264.644 424.998C272.477 424.629 277.319 421.154 282.642 428.43C285.557 432.361 287.357 436.271 285.532 440.897C282.87 447.586 273.086 452.451 265.253 452.668C243.022 453.32 223.731 440.419 221.728 420.85C219.548 399.326 231.868 379.736 245.278 362.208C247.813 358.798 250.677 355.497 253.516 352.217C251.412 361.491 251.691 369.962 259.549 378.975C267.838 388.467 285.608 397.328 299.854 391.877C315.292 385.969 315.9 373.719 308.321 362.165C307.424 361.025 306.273 360.048 304.934 359.29C303.596 358.532 302.096 358.008 300.52 357.748C298.945 357.487 297.325 357.496 295.753 357.773C294.182 358.05 292.69 358.591 291.362 359.363C286.293 362.729 283.149 366.617 283.048 371.048C281.139 370.362 279.414 369.349 277.978 368.072C271.92 362.599 270.855 358.103 271.539 350.892C272.401 341.749 273.669 334.603 278.536 326.22C280.473 323.325 282.102 320.286 283.403 317.141L274.328 309.365C268.573 310.625 262.819 314.317 257.851 316.011C248.446 319.226 239.878 319.465 229.967 319.921C226.386 319.907 222.87 319.1 219.761 317.577C216.651 316.055 214.054 313.87 212.222 311.233C211.944 310.821 211.715 310.408 211.487 309.995C214.008 309.791 216.447 309.119 218.635 308.028C220.823 306.937 222.709 305.452 224.162 303.675C225.348 302.437 226.193 300.986 226.634 299.43C227.075 297.874 227.1 296.252 226.708 294.687C226.315 293.121 225.516 291.651 224.368 290.387C223.221 289.123 221.755 288.097 220.081 287.386C207.153 281.174 188.191 283.693 186.088 298.68C184.313 311.103 190.676 324.308 203.655 330.715C212.244 335.325 222.5 337.094 232.502 335.689C228.649 338.1 224.745 340.489 220.714 342.704C201.272 353.347 176.658 366.074 152.424 362.252C132.145 359.059 112.068 343.877 116.2 324.243C117.797 316.685 123.171 308.345 132.829 307.085C138.634 306.325 144.946 309.474 148.698 313.145C152.855 317.228 148.698 321.289 148.495 325.807C148.511 326.159 148.609 326.504 148.783 326.823C148.957 327.143 149.203 327.429 149.507 327.665C149.812 327.902 150.168 328.084 150.556 328.201C150.944 328.319 151.355 328.368 151.765 328.348C166.974 325.915 164.034 310.69 153.996 304.196C143.957 297.702 133.108 294.944 121.042 299.071C94.9323 307.91 87.1248 345.18 103.83 362.838C124.946 385.165 158.229 388.206 188.039 380.083C184.719 383.384 181.474 386.729 178.407 390.204C175.872 393.071 173.337 396.047 170.802 399.152C159.572 405.234 147.684 409.665 135.618 410.49C119.165 411.779 102.622 409.069 87.8852 402.671C92.766 399.467 96.6852 395.313 99.3177 390.552C102.233 385.556 99.9006 380.3 95.6166 376.63C84.6151 367.225 69.3297 363.381 55.768 371.439C45.3748 377.607 38.277 387.12 42.2315 398.218C48.4166 415.594 74.7798 425.129 93.9944 427.387C115.896 429.972 138.812 424.672 159.294 415.746C148.546 433.469 141.777 453.255 145.681 472.476C149.205 489.743 160.891 513.743 183.958 516.718C196.506 518.369 209.307 509.616 213.743 499.951C219.903 487.701 213.515 477.385 203.3 468.567Z" fill="#08132E"/>
<path d="M587.288 371.486C573.726 363.428 558.466 367.272 547.439 376.677C543.155 380.347 540.848 385.603 543.738 390.599C546.379 395.361 550.307 399.515 555.196 402.718C540.449 409.115 523.898 411.825 507.438 410.537C495.397 409.712 483.483 405.281 472.254 399.199C469.719 396.094 467.31 393.118 464.801 390.251C461.708 386.776 458.489 383.431 455.143 380.13C484.953 388.253 518.237 385.212 539.353 362.885C556.083 345.227 548.25 307.957 522.14 299.117C510.024 294.991 499.326 297.641 489.187 304.243C479.047 310.846 476.132 325.962 491.417 328.395C491.829 328.415 492.241 328.366 492.63 328.249C493.019 328.132 493.378 327.95 493.684 327.714C493.991 327.477 494.239 327.191 494.416 326.872C494.592 326.553 494.693 326.207 494.713 325.854C494.383 321.336 490.327 317.275 494.485 313.192C498.262 309.521 504.624 306.372 510.353 307.132C520.037 308.392 525.411 316.732 526.982 324.29C531.139 343.837 511.063 359.041 490.758 362.299C466.525 366.078 441.911 353.35 422.468 342.751C418.437 340.579 414.534 338.147 410.681 335.736C420.682 337.143 430.94 335.374 439.528 330.762C452.507 324.355 458.895 311.215 457.12 298.727C454.991 283.74 436.03 281.221 423.127 287.433C421.45 288.142 419.982 289.166 418.832 290.43C417.682 291.693 416.88 293.162 416.485 294.728C416.091 296.294 416.114 297.916 416.553 299.473C416.991 301.031 417.835 302.483 419.02 303.722C420.473 305.499 422.359 306.984 424.547 308.075C426.736 309.166 429.174 309.838 431.695 310.042C431.467 310.455 431.239 310.868 430.96 311.28C429.132 313.92 426.536 316.107 423.426 317.63C420.315 319.153 416.798 319.958 413.216 319.968C403.304 319.512 394.711 319.273 385.332 316.058C380.262 314.364 374.609 310.672 368.88 309.412L359.805 317.188C361.097 320.333 362.717 323.371 364.647 326.266C369.514 334.65 370.781 341.796 371.643 350.939C372.327 358.15 371.263 362.646 365.23 368.119C363.782 369.385 362.06 370.395 360.16 371.095C360.16 366.751 356.915 362.776 351.82 359.41C350.493 358.638 349 358.097 347.429 357.82C345.857 357.543 344.238 357.534 342.662 357.795C341.087 358.055 339.586 358.579 338.248 359.337C336.909 360.095 335.759 361.072 334.861 362.212C327.257 373.766 327.891 386.103 343.328 391.924C357.574 397.375 375.344 388.514 383.633 379.022C391.491 370.009 391.77 361.647 389.692 352.264C392.505 355.544 395.294 358.78 397.905 362.255C411.34 379.63 423.659 399.308 421.454 420.897C419.451 440.444 400.161 453.476 377.93 452.715C370.021 452.498 360.185 447.633 357.65 440.944C355.825 436.318 357.65 432.408 360.565 428.477C365.939 421.201 370.705 424.676 378.563 425.045C379.043 425.06 379.52 424.982 379.959 424.816C380.398 424.649 380.787 424.4 381.097 424.086C381.407 423.773 381.63 423.403 381.748 423.004C381.867 422.606 381.879 422.19 381.783 421.787C379.045 408.626 361.503 412.578 354.076 419.963C346.015 427.912 342.948 437.946 347.206 447.872C347.561 448.697 348.043 449.436 348.474 450.218C349.463 451.586 350.426 452.998 351.313 454.409C365.838 472.197 402.163 475.325 421.429 463.662C449.313 446.786 451.391 416.271 441.86 390.49C444.733 392.749 447.665 394.964 450.656 397.136C454.737 400.068 459.097 402.913 463.686 405.628C470.724 414.967 475.516 425.415 477.78 436.361C480.314 450.652 475.929 464.422 468.603 476.911C464.592 472.594 459.463 469.136 453.622 466.811C451.368 466.024 448.904 465.786 446.501 466.123C444.099 466.46 441.853 467.36 440.01 468.722C429.87 477.41 423.533 487.814 429.185 500.107C433.647 509.772 446.448 518.524 458.996 516.874C482.064 513.877 493.724 489.899 497.248 472.632C501.151 453.41 494.383 433.537 483.661 415.901C504.117 424.828 527.033 430.127 548.934 427.543C568.149 425.371 594.563 415.815 600.697 398.374C604.778 387.167 597.605 377.654 587.288 371.486Z" fill="#08132E"/>
<path d="M320.286 13.7486C356.289 13.7133 392.012 19.1627 425.789 29.8424C431.105 26.3174 436.85 23.2953 442.925 20.8289C365.123 -6.69273 277.822 -6.95 199.802 20.1123C205.329 22.9032 210.562 26.1007 215.442 29.6686C249.021 19.1059 284.516 13.7162 320.286 13.7486Z" fill="#08132E"/>
<path d="M27.2506 181.053C25.4508 178.881 23.7524 176.426 22.1807 174.016C-7.80843 239.518 -7.37305 312.375 23.3974 377.611C25.7549 372.239 28.6647 367.056 32.0924 362.125C32.4219 361.669 32.8022 361.257 33.1318 360.822C10.334 304.909 10.334 244.025 33.1318 188.111C31.0024 185.722 29.0505 183.333 27.2506 181.053Z" fill="#08132E"/>
<path d="M280.74 275.422C280.735 282.116 283.047 288.66 287.384 294.228C291.72 299.795 297.887 304.136 305.103 306.7C312.319 309.265 320.261 309.938 327.923 308.635C335.586 307.332 342.626 304.111 348.152 299.379C353.677 294.648 357.441 288.618 358.967 282.053C360.493 275.489 359.713 268.684 356.724 262.5C353.736 256.315 348.674 251.029 342.178 247.31C335.683 243.591 328.046 241.605 320.234 241.605C309.764 241.605 299.723 245.168 292.317 251.509C284.911 257.85 280.747 266.451 280.74 275.422Z" fill="#08132E"/>
</g>
</svg>
