<svg width="16" height="18" viewBox="0 0 16 18" fill="none" xmlns="http://www.w3.org/2000/svg">
<path fill-rule="evenodd" clip-rule="evenodd" d="M7.99983 0.136356C6.00658 0.134492 4.09277 0.917651 2.67264 2.31632C1.39175 3.58085 0.724488 4.99446 0.548127 6.46263C0.373584 7.91988 0.686307 9.38167 1.28357 10.7526C2.47174 13.4789 4.8317 15.9598 7.0953 17.5734C7.35914 17.7621 7.67542 17.8636 7.99983 17.8636C8.32425 17.8636 8.64053 17.7621 8.90437 17.5734C11.168 15.9598 13.5279 13.4798 14.7152 10.7526C15.3134 9.38167 15.627 7.91988 15.4515 6.46353C15.2752 4.99447 14.6079 3.57994 13.327 2.31632C11.9125 0.919071 9.99617 0.136356 7.99983 0.136356ZM6.23209 5.41396C5.76326 5.8828 5.49987 6.51867 5.49987 7.18171C5.49987 7.84474 5.76326 8.48061 6.23209 8.94945C6.70093 9.41828 7.3368 9.68167 7.99983 9.68167C8.66287 9.68167 9.29874 9.41828 9.76758 8.94945C10.2364 8.48061 10.4998 7.84474 10.4998 7.18171C10.4998 6.51867 10.2364 5.8828 9.76758 5.41396C9.29874 4.94513 8.66287 4.68174 7.99983 4.68174C7.3368 4.68174 6.70093 4.94513 6.23209 5.41396Z" fill="#212121"/>
</svg>
