<svg width="200" height="46" viewBox="0 0 200 46" fill="none" xmlns="http://www.w3.org/2000/svg">
<path d="M2.74356 14.0377C3.44542 13.6082 4.24303 13.3551 5.06668 13.3005C5.89034 13.2459 6.715 13.3915 7.46858 13.7246C8.11742 14.0248 8.68311 14.4758 9.11736 15.039C9.55161 15.6022 9.84151 16.2609 9.96234 16.9589C10.1159 17.8184 10.0011 18.7038 9.63329 19.4972C9.26544 20.2907 8.66196 20.9548 7.90306 21.401C7.35254 21.7179 6.71619 21.8583 6.08159 21.8031C5.44698 21.7478 4.84529 21.4995 4.35932 21.0924L4.27332 21.0253L4.21901 20.985C4.0217 20.8286 3.86237 20.6305 3.75272 20.4052C3.64307 20.1799 3.58588 19.9332 3.58537 19.6832C3.60799 19.2481 3.7988 18.8381 4.11843 18.538C4.43805 18.2378 4.86209 18.0705 5.30295 18.0705C5.74381 18.0705 6.16783 18.2378 6.48746 18.538C6.80708 18.8381 6.99791 19.2481 7.02052 19.6832C7.01862 19.8914 6.97876 20.0975 6.90285 20.2916L7.20157 20.1574C7.69916 19.8544 8.09274 19.4102 8.33093 18.8826C8.56912 18.3551 8.64082 17.7689 8.53668 17.2004C8.45442 16.73 8.25781 16.2864 7.96376 15.9077C7.66969 15.529 7.287 15.2266 6.84854 15.0264C6.30686 14.7907 5.71451 14.6915 5.1245 14.7375C4.5345 14.7836 3.96526 14.9735 3.46771 15.2903C2.82799 15.6574 2.29849 16.186 1.93346 16.8219C1.56842 17.4578 1.381 18.1783 1.39034 18.9093C1.39034 20.9135 2.74809 22.761 5.22376 24.103C18.0908 31.1487 27.4006 29.0775 41.5304 25.9416L45.2416 25.123C47.2638 24.6776 49.3076 24.3342 51.3651 24.0941L51.3651 24.0225C53.7231 16.4176 59.7154 11.5505 67.4003 10.9868C80.4892 10.034 90.1203 19.5267 95.7731 29.8648C96.9715 28.606 98.0729 27.2602 99.0679 25.8387C98.332 24.7257 97.6626 23.571 97.063 22.3807C93.2115 14.6953 92.2067 7.43043 94.438 3.41326C95.5423 1.43599 97.416 0.281837 99.869 8.75373e-06L99.946 8.747e-06L100.023 8.74027e-06C102.476 0.259469 104.354 1.43599 105.454 3.41326C107.69 7.43937 106.685 14.6953 102.833 22.3807C102.232 23.5701 101.563 24.7246 100.829 25.8387C101.825 27.2591 102.926 28.6048 104.123 29.8648C109.776 19.5267 119.407 10.0384 132.496 10.9868C140.19 11.5505 146.173 16.4221 148.527 24.0225L148.549 24.0941C150.607 24.3342 152.651 24.6776 154.673 25.123L158.384 25.9416C172.5 29.073 181.828 31.1487 194.691 24.103C197.153 22.761 198.515 20.9134 198.529 18.9093C198.537 18.1784 198.349 17.4584 197.984 16.8226C197.619 16.1868 197.09 15.6581 196.451 15.2903C195.951 14.9753 195.381 14.7865 194.79 14.7405C194.199 14.6945 193.605 14.7926 193.061 15.0263C192.625 15.2287 192.243 15.5318 191.949 15.9102C191.656 16.2885 191.458 16.731 191.373 17.2004C191.273 17.7711 191.348 18.3585 191.591 18.886C191.833 19.4135 192.23 19.8566 192.731 20.1574L193.03 20.2916C192.954 20.0975 192.914 19.8914 192.912 19.6832C192.935 19.248 193.126 18.8381 193.445 18.5379C193.765 18.2378 194.189 18.0705 194.63 18.0705C195.071 18.0705 195.495 18.2378 195.814 18.5379C196.134 18.8381 196.325 19.248 196.347 19.6832C196.347 19.9332 196.29 20.1799 196.18 20.4052C196.07 20.6305 195.911 20.8286 195.714 20.985L195.659 21.0297L195.573 21.0924C195.087 21.4995 194.486 21.7478 193.851 21.803C193.216 21.8583 192.58 21.7179 192.03 21.401C191.271 20.9544 190.667 20.2906 190.299 19.4973C189.93 18.704 189.814 17.8188 189.966 16.9589C190.088 16.2609 190.379 15.6024 190.814 15.0393C191.249 14.4762 191.815 14.0252 192.464 13.7245C193.218 13.3915 194.042 13.2459 194.866 13.3005C195.69 13.355 196.487 13.6082 197.189 14.0377C198.053 14.5304 198.768 15.2412 199.262 16.0973C199.756 16.9534 200.01 17.9239 200 18.9093C200 21.4189 198.312 23.763 195.415 25.3466C182.068 32.6563 172.012 30.424 158.09 27.3284L154.388 26.5142C152.469 26.0982 150.668 25.785 148.957 25.5747C150.514 32.3207 148.744 39.2994 144.494 42.6142C142.349 44.2873 140.063 45.1327 137.882 45.1327C136.13 45.1312 134.425 44.5746 133.017 43.5446C131.249 42.2046 129.955 40.3466 129.319 38.2361C128.683 36.1255 128.739 33.8704 129.477 31.7929C131.74 25.8297 137.601 23.1994 146.993 23.9375C145.766 20.3587 142.109 13.1162 132.401 12.4094C119.837 11.4878 110.582 20.8329 105.187 30.9116C108.939 34.4904 113.524 36.8568 118.022 35.3851C120.362 34.6246 121.756 33.1484 121.946 31.274C122.132 29.4846 121.145 27.4626 119.683 26.6261C119.183 26.3111 118.613 26.1223 118.022 26.0763C117.431 26.0302 116.837 26.1284 116.293 26.3621C115.856 26.5635 115.474 26.8664 115.18 27.2449C114.886 27.6233 114.689 28.0664 114.605 28.5362C114.506 29.1068 114.582 29.6937 114.824 30.221C115.066 30.7482 115.463 31.1915 115.963 31.4932L116.416 31.6676C116.273 31.3826 116.214 31.0634 116.245 30.7467C116.277 30.4301 116.398 30.1287 116.595 29.877C116.792 29.6252 117.057 29.4333 117.359 29.3233C117.661 29.2132 117.988 29.1895 118.304 29.2546C118.619 29.3198 118.909 29.4713 119.141 29.6919C119.373 29.9124 119.538 30.1931 119.616 30.5017C119.694 30.8104 119.683 31.1346 119.584 31.4373C119.484 31.74 119.301 32.009 119.054 32.2134L118.964 32.3297C118.477 32.7822 117.855 33.0671 117.192 33.1421C116.528 33.2171 115.857 33.078 115.28 32.7457C114.52 32.2989 113.916 31.6342 113.547 30.8401C113.179 30.0459 113.063 29.1597 113.216 28.2991C113.339 27.6018 113.63 26.944 114.065 26.3817C114.5 25.8194 115.065 25.3692 115.714 25.0693C116.468 24.7363 117.292 24.5903 118.115 24.6441C118.939 24.6979 119.737 24.9498 120.439 25.3779C122.426 26.5008 123.693 29.0372 123.453 31.4171C123.304 32.8576 122.476 35.4432 118.538 36.7495C117.483 37.0948 116.378 37.2699 115.266 37.2684C111.41 37.2684 107.703 35.1748 104.549 32.2716C102.912 35.5432 101.63 38.9771 100.724 42.5158L100.684 42.6052L100.62 42.7395L100.525 42.8468L100.426 42.9318L100.281 42.9989L100.195 43.0392L100.168 43.0392L100.023 43.0392L99.8781 43.0392L99.8509 43.0392L99.7649 42.9989L99.6201 42.9318L99.5205 42.8468L99.4255 42.7395L99.3621 42.6052L99.3214 42.5158C98.4183 38.9765 97.1362 35.5424 95.497 32.2716C92.3289 35.1748 88.6403 37.2684 84.7797 37.2684C83.6679 37.2699 82.5631 37.0948 81.5075 36.7495C77.57 35.4611 76.7372 32.8576 76.5969 31.4171C76.4858 30.234 76.7082 29.0436 77.2394 27.9776C77.7706 26.9117 78.5899 26.012 79.6066 25.3779C80.31 24.9498 81.1085 24.6979 81.9327 24.6441C82.7569 24.5903 83.582 24.7363 84.3362 25.0693C84.9838 25.3701 85.5485 25.8206 85.9826 26.3828C86.4167 26.945 86.7074 27.6023 86.83 28.2991C86.9821 29.1597 86.8663 30.0456 86.4977 30.8397C86.1292 31.6337 85.5254 32.2984 84.7662 32.7457C84.1887 33.078 83.5181 33.2171 82.8543 33.1421C82.1904 33.0671 81.5688 32.7822 81.0821 32.3297L80.9961 32.2134C80.7486 32.0094 80.5643 31.7405 80.4643 31.4378C80.3643 31.135 80.3526 30.8104 80.4305 30.5013C80.5085 30.1923 80.6729 29.9112 80.905 29.6903C81.1372 29.4693 81.4276 29.3174 81.743 29.2521C82.0584 29.1867 82.386 29.2105 82.6884 29.3207C82.9907 29.4309 83.2556 29.6231 83.4525 29.8752C83.6495 30.1273 83.7706 30.4292 83.802 30.7462C83.8335 31.0632 83.7739 31.3826 83.6302 31.6677L84.0827 31.4932C84.5781 31.188 84.9699 30.7434 85.2078 30.2165C85.4457 29.6896 85.5189 29.1045 85.4179 28.5362C85.3342 28.0664 85.137 27.6234 84.8431 27.2449C84.5492 26.8664 84.1673 26.5635 83.7297 26.3621C83.1873 26.1264 82.5942 26.0272 82.0035 26.0733C81.4127 26.1193 80.8428 26.3093 80.3444 26.6261C78.8553 27.4626 77.8687 29.4622 78.0543 31.274C78.2443 33.1618 79.6383 34.6246 81.9782 35.3851C86.4769 36.8568 91.0662 34.4904 94.8136 30.9116C89.4233 20.8284 80.1678 11.4834 67.5995 12.4094C57.896 13.1162 54.2345 20.3408 53.008 23.9375C62.3992 23.2039 68.2784 25.8297 70.5232 31.7929C71.2611 33.8705 71.3162 36.1254 70.6806 38.2358C70.045 40.3461 68.7513 42.2042 66.984 43.5447C65.577 44.5737 63.8735 45.1303 62.1232 45.1328C59.9372 45.1328 57.6516 44.2873 55.5063 42.6142C51.261 39.2994 49.4869 32.3252 51.0438 25.5747C49.3466 25.785 47.5453 26.0982 45.6127 26.5142L41.9106 27.3284C27.9935 30.424 17.9234 32.6563 4.5856 25.3467C1.68904 23.7631 0.0189838 21.419 0.000886663 18.9093C-0.0167221 17.9305 0.227647 16.9644 0.709276 16.1089C1.19092 15.2534 1.8927 14.5389 2.74356 14.0377ZM130.826 32.2894C130.192 34.074 130.144 36.0111 130.689 37.8242C131.234 39.6373 132.345 41.2338 133.863 42.386C136.701 44.4259 140.24 44.0994 143.585 41.4913C147.513 38.427 149.056 31.7839 147.418 25.3869C138.439 24.5951 132.867 26.8899 130.835 32.2894L130.826 32.2894ZM101.562 21.7231C105.151 14.5656 106.192 7.6362 104.214 4.0798C103.836 3.28458 103.237 2.61207 102.487 2.14101C101.737 1.66995 100.866 1.41981 99.9777 1.41981C99.0889 1.41981 98.2185 1.66995 97.4683 2.14101C96.7181 2.61207 96.1191 3.28458 95.7414 4.0798C93.7636 7.6362 94.8046 14.5656 98.3936 21.7231C98.8739 22.6749 99.4026 23.6021 99.9777 24.5012C100.553 23.6021 101.081 22.6749 101.562 21.7231ZM99.9777 27.0913C98.9357 28.5507 97.7828 29.9295 96.5289 31.2158C97.9157 33.9261 99.0693 36.7469 99.9777 39.6483C100.886 36.7469 102.04 33.9261 103.426 31.2158C102.167 29.933 101.008 28.5572 99.9595 27.1002L99.9777 27.0913ZM56.3029 41.4914C59.6475 44.0994 63.1958 44.4259 66.029 42.386C67.5469 41.234 68.6582 39.6377 69.2043 37.8247C69.7504 36.0117 69.7036 34.0745 69.0704 32.2894C67.3008 27.6012 62.8654 25.2482 55.8412 25.2482C54.7777 25.2482 53.6552 25.2974 52.474 25.4092C50.8718 31.7839 52.397 38.427 56.3029 41.4914Z" fill="#F2DAB1"/>
</svg>
