<svg width="24" height="24" viewBox="0 0 24 24" fill="none" xmlns="http://www.w3.org/2000/svg">
<g clip-path="url(#clip0_184_21634)">
<path d="M12.9194 9.50593C13.2866 8.5576 13.4599 7.55347 13.4306 6.54521L14.2195 4.99168C14.2833 4.6462 14.1974 4.29089 13.9816 4.00404C13.7657 3.7172 13.4369 3.52276 13.0684 3.4638C11.7587 3.58515 10.4358 3.53931 9.13836 3.32679C7.8651 3.11792 6.62638 2.75087 5.45601 2.23473C5.08699 2.17448 4.70842 2.25504 4.4028 2.45763C4.09721 2.66024 3.89047 2.96795 3.82628 3.3143L3.93528 5.07443C3.58897 6.00671 3.42373 6.98889 3.44495 7.97553C3.46401 8.739 4.29153 11.9206 6.56976 13.6128C6.95567 13.9007 7.47212 13.9858 7.93916 13.8358C10.8834 12.8837 12.7408 9.96297 12.9194 9.50593ZM9.89292 5.79798C10.4748 6.38918 11.2981 6.71957 12.155 6.70773C12.2551 6.70771 12.3444 6.7657 12.3795 6.85333C12.416 6.94053 12.3905 7.03985 12.3171 7.10227C12.0987 7.29681 11.8323 7.43946 11.5433 7.51835C11.2066 7.62986 10.839 7.62579 10.5047 7.50776C9.837 7.24765 9.42023 6.61681 9.46968 5.94025C9.47562 5.84796 9.53881 5.76803 9.63129 5.73677C9.72376 5.70549 9.82733 5.72948 9.89292 5.79798ZM6.27524 7.0479C5.91989 7.07505 5.56473 6.9838 5.27393 6.79073C5.01829 6.6394 4.80506 6.43492 4.65088 6.19132C4.59797 6.11157 4.60335 6.00941 4.66385 5.93466C4.72344 5.85949 4.82642 5.82769 4.92266 5.85259C5.74411 6.08603 6.63345 5.97912 7.36609 5.55909C7.44744 5.51204 7.55077 5.51456 7.62943 5.56449C7.70901 5.61484 7.74876 5.70458 7.73227 5.7931C7.58721 6.46321 6.99986 6.969 6.27524 7.0479ZM9.82676 11.2964C9.2378 10.8151 8.51562 10.498 7.74244 10.3838C6.97019 10.2701 6.17899 10.3633 5.46103 10.6523C5.37362 10.687 5.27242 10.6694 5.20416 10.6082C5.13635 10.5462 5.11484 10.452 5.14875 10.3693C5.61443 9.26225 6.84393 8.61306 8.09472 8.81481C9.12208 8.98037 9.96683 9.89918 10.2099 11.0867C10.2282 11.1783 10.183 11.2718 10.0975 11.318C10.0116 11.3651 9.90325 11.3571 9.82676 11.2964Z" fill="#212121"/>
<path d="M21.2101 14.3274C20.0416 13.8068 18.9528 13.1423 17.9724 12.3507C16.9741 11.5455 16.0961 10.6161 15.3646 9.58861C15.0806 9.35895 14.7129 9.24473 14.339 9.27006C13.9661 9.2957 13.6197 9.45991 13.3753 9.72552C13.1157 10.2451 12.8573 10.764 12.5977 11.2836C11.7488 11.902 11.0327 12.6657 10.4857 13.5334C10.2222 13.9538 8.99793 17.1544 10.0841 19.8934L10.085 19.8937C10.2583 20.3275 10.6553 20.6488 11.1381 20.7452C13.9771 21.3219 17.1215 19.9029 17.7613 19.4317L17.7617 19.4308C18.5873 18.8203 19.2902 18.0757 19.837 17.2332L21.3553 16.1942L21.3562 16.1945C21.8647 15.6411 21.7995 14.8055 21.2101 14.3274ZM12.3624 12.6624C12.9898 12.2753 13.8147 12.3264 14.3833 12.7869C14.6447 13.0136 14.8131 13.3206 14.8585 13.6529C14.9177 13.9583 14.8919 14.2726 14.783 14.5661C14.7547 14.6432 14.6789 14.6965 14.5926 14.7C14.505 14.7041 14.4245 14.6579 14.3884 14.583C14.014 13.813 13.2919 13.2411 12.4207 13.0251C12.3399 13.004 12.2796 12.9398 12.2662 12.8619C12.2541 12.7834 12.2914 12.705 12.3624 12.6624ZM15.3364 19.3446C14.1974 19.8941 12.8179 19.7395 11.8492 18.9546C11.0604 18.3156 10.7579 17.2011 11.0103 16.0608L11.0113 16.0611C11.0519 15.8727 11.2151 15.7304 11.4183 15.7066C11.6216 15.6828 11.8173 15.7841 11.906 15.9571C12.5237 17.2523 13.7508 18.2023 15.2243 18.5236C15.4144 18.5675 15.556 18.7155 15.581 18.8981C15.6063 19.0797 15.5081 19.2575 15.3364 19.3446ZM18.1796 17.6683C18.1445 17.7403 18.068 17.7862 17.983 17.7861C17.8993 17.7854 17.8223 17.7382 17.7885 17.6661C17.4328 16.8887 16.7259 16.3014 15.8595 16.0656C15.776 16.0427 15.7158 15.9755 15.7069 15.8939C15.6979 15.8123 15.7427 15.7343 15.8205 15.6968C16.1133 15.5533 16.4415 15.4835 16.7725 15.4944C17.129 15.4879 17.4763 15.5988 17.7541 15.8094C18.3217 16.2696 18.4955 17.0288 18.1796 17.6683Z" fill="#212121"/>
</g>
<defs>
<clipPath id="clip0_184_21634">
<rect width="24" height="24" fill="white"/>
</clipPath>
</defs>
</svg>
