<svg width="21" height="56" viewBox="0 0 21 56" fill="none" xmlns="http://www.w3.org/2000/svg">
<path d="M10.408 44.75C9.6641 44.75 9.06112 45.4453 9.06112 46.3032V50.602L7.02871 48.5531C6.47077 47.9888 5.61911 48.0543 5.12869 48.7002C4.63935 49.3455 4.69616 50.327 5.25625 50.8913L9.52153 55.1919C9.77665 55.4497 10.0923 55.5758 10.407 55.5758C10.4075 55.5758 10.408 55.5758 10.408 55.5758C10.7226 55.5758 11.0389 55.4491 11.294 55.1913L15.5566 50.8907C16.1161 50.3264 16.173 49.3448 15.6831 48.6996C15.1943 48.0537 14.3431 47.9894 13.7831 48.5537L11.7539 50.6014V46.3039C11.7544 45.4453 11.1514 44.75 10.408 44.75Z" fill="#182951"/>
<path d="M10.4075 10.8236C11.1514 10.8236 11.7544 10.1282 11.7544 9.27034V4.97218L13.7836 7.01928C14.0392 7.27702 14.3549 7.40373 14.6695 7.40373C15.0442 7.40373 15.4178 7.22386 15.6841 6.87341C16.1735 6.22813 16.1167 5.24661 15.5571 4.68229L11.2945 0.382274C11.2784 0.365586 11.264 0.356314 11.249 0.342717C10.7494 -0.12023 10.0211 -0.120848 9.52153 0.381656L5.25625 4.68168C4.69616 5.24599 4.63935 6.22689 5.12869 6.87279C5.39507 7.22386 5.76757 7.40373 6.14329 7.40373C6.4579 7.40373 6.77359 7.27702 7.02872 7.01989L9.06113 4.97094V9.27096C9.06059 10.1282 9.66356 10.8236 10.4075 10.8236Z" fill="#182951"/>
<path d="M0 21.5285V34.0447C0 38.995 3.49294 43.0224 7.78608 43.0224H13.0252C17.3178 43.0224 20.8102 38.9943 20.8102 34.0447V21.5285C20.8102 16.5782 17.3173 12.5508 13.0252 12.5508H7.78608C3.4924 12.5508 0 16.5782 0 21.5285ZM2.69327 21.5285C2.69327 18.2909 4.97812 15.6567 7.78608 15.6567H13.0252C15.8327 15.6567 18.117 18.2903 18.117 21.5285V34.0447C18.117 37.2822 15.8327 39.9165 13.0252 39.9165H7.78608C4.97812 39.9165 2.69327 37.2822 2.69327 34.0447V21.5285Z" fill="#182951"/>
<path d="M10.4074 26.5012C11.1514 26.5012 11.7543 25.8059 11.7543 24.948V20.8365C11.7543 19.9786 11.1514 19.2832 10.4074 19.2832C9.66352 19.2832 9.06055 19.9786 9.06055 20.8365V24.9486C9.06055 25.8059 9.66352 26.5012 10.4074 26.5012Z" fill="#182951"/>
</svg>
