<svg width="16" height="16" viewBox="0 0 16 16" fill="none" xmlns="http://www.w3.org/2000/svg">
<path d="M6.38415 0.157288C3.27782 0.763552 0.774637 3.26049 0.162122 6.35744C-0.994155 12.2013 4.27785 16.5577 8.24981 15.942C9.53735 15.742 10.1686 14.2357 9.57797 13.0763C8.85608 11.6576 9.88735 10.0013 11.4811 10.0013H13.9718C15.0906 10.0013 15.9969 9.07625 16 7.9606C15.9844 3.03548 11.503 -0.839611 6.38415 0.157288ZM2.99969 10.0013C2.44655 10.0013 1.99967 9.55439 1.99967 9.00125C1.99967 8.44811 2.44655 8.00122 2.99969 8.00122C3.55283 8.00122 3.99971 8.44811 3.99971 9.00125C3.99971 9.55439 3.55283 10.0013 2.99969 10.0013ZM3.99971 6.00118C3.44658 6.00118 2.99969 5.55429 2.99969 5.00115C2.99969 4.44802 3.44658 4.00113 3.99971 4.00113C4.55285 4.00113 4.99974 4.44802 4.99974 5.00115C4.99974 5.55429 4.55285 6.00118 3.99971 6.00118ZM7.99981 4.00113C7.44667 4.00113 6.99979 3.55424 6.99979 3.00111C6.99979 2.44797 7.44667 2.00108 7.99981 2.00108C8.55295 2.00108 8.99983 2.44797 8.99983 3.00111C8.99983 3.55424 8.55295 4.00113 7.99981 4.00113ZM11.9999 6.00118C11.4468 6.00118 10.9999 5.55429 10.9999 5.00115C10.9999 4.44802 11.4468 4.00113 11.9999 4.00113C12.553 4.00113 12.9999 4.44802 12.9999 5.00115C12.9999 5.55429 12.553 6.00118 11.9999 6.00118Z" fill="#212121"/>
</svg>
