<svg width="24" height="24" viewBox="0 0 24 24" fill="none" xmlns="http://www.w3.org/2000/svg">
<path d="M12.5869 22.8955L12.5791 22.0088C12.5754 21.8765 12.5857 21.6436 12.7559 21.4512C12.882 21.3087 13.0409 21.252 13.1621 21.2266L13.2676 21.209H13.2686C14.0715 21.1147 14.8445 20.9024 15.5898 20.5859L15.9072 20.4443C17.5735 19.6628 18.8926 18.5059 19.8652 16.9668L20.0557 16.6533C20.5932 15.7312 20.9594 14.7525 21.1426 13.7139L21.21 13.2646C21.2243 13.1479 21.2628 12.9232 21.4512 12.7559C21.5952 12.6281 21.762 12.5904 21.8926 12.5811L22.0098 12.5791C22.3011 12.5875 22.5948 12.5868 22.8955 12.5859C23.0931 12.5854 23.2944 12.5877 23.4971 12.5889C23.4925 12.1949 23.4924 11.8009 23.4971 11.4072C23.2906 11.4089 23.0851 11.4107 22.8838 11.4102C22.5825 11.4093 22.289 11.4086 21.9971 11.416C21.8708 11.4193 21.6445 11.4102 21.4551 11.2461C21.3123 11.1224 21.2543 10.966 21.2285 10.8457L21.2119 10.7402V10.7393C21.1171 9.92914 20.9029 9.14944 20.584 8.39844L20.4404 8.0791V8.07812C19.7681 6.64365 18.803 5.45794 17.54 4.52148L17.2832 4.33789C16.3575 3.69604 15.3514 3.24255 14.2666 2.9707L13.7959 2.86523C13.7028 2.84667 13.6099 2.83068 13.5176 2.81641L13.2422 2.78027C13.1331 2.7693 12.9158 2.73622 12.752 2.55273C12.6293 2.41531 12.593 2.25637 12.583 2.13574L12.5791 2.0293C12.5868 1.52035 12.5821 1.01387 12.5781 0.5H11.416C11.4146 0.670765 11.4131 0.840543 11.4121 1.00977L11.416 2.00391C11.4186 2.13315 11.4064 2.36002 11.2383 2.54785C11.114 2.68669 10.959 2.74265 10.8418 2.76758L10.7402 2.78418C9.69727 2.91219 8.71239 3.22002 7.78418 3.69727L7.38965 3.91211C5.77588 4.84178 4.54971 6.12504 3.70996 7.76562L3.54688 8.09863L3.40527 8.41602C3.13511 9.05521 2.94188 9.71502 2.83203 10.3965L2.78418 10.7383C2.77066 10.8522 2.73377 11.0736 2.54785 11.2393C2.40695 11.3648 2.24383 11.4028 2.11719 11.4131L2.00488 11.416C1.50457 11.407 1.00642 11.4118 0.5 11.416V12.5801C1.00675 12.5844 1.50451 12.5896 2.00488 12.5801V12.5811C2.13491 12.5785 2.36215 12.5895 2.5498 12.7578C2.68866 12.8823 2.74387 13.0379 2.76855 13.1553L2.78516 13.2568V13.2578C2.88058 14.0614 3.09201 14.8345 3.40723 15.5801L3.54883 15.8984C4.33771 17.5865 5.51185 18.9168 7.07422 19.8936L7.3916 20.084C8.29814 20.606 9.26063 20.9636 10.2803 21.1426L10.7207 21.208C10.8474 21.2237 11.0739 21.2663 11.2412 21.458C11.3677 21.6031 11.4058 21.7705 11.415 21.9033L11.417 22.0225C11.4086 22.3094 11.409 22.5983 11.4102 22.8955C11.4109 23.0931 11.4087 23.2948 11.4072 23.498C11.8011 23.4932 12.1947 23.4934 12.5879 23.498C12.5867 23.2951 12.5863 23.0934 12.5869 22.8955ZM11.9902 20.1348C7.64976 20.1238 4.07154 16.6757 3.87109 12.4014L3.8623 11.9844C3.88357 7.64483 7.29234 4.10221 11.5732 3.875L11.9902 3.86328C16.4597 3.85169 20.1328 7.52377 20.1328 11.999C20.1326 16.4742 16.4601 20.145 11.9902 20.1348Z" fill="#212121" stroke="#212121"/>
<path d="M12.0034 15.8585C14.0682 15.8552 15.7536 14.2299 15.854 12.1925L15.8589 11.9933C15.8553 9.86211 14.1238 8.13554 11.9937 8.13879L11.7944 8.14368C9.8218 8.24711 8.24023 9.83317 8.14307 11.8048L8.13818 12.0031C8.14147 14.0679 9.76719 15.7536 11.8052 15.8536L12.0034 15.8585Z" fill="#212121" stroke="#212121"/>
</svg>
