<svg width="16" height="24" viewBox="0 0 16 24" fill="none" xmlns="http://www.w3.org/2000/svg">
<path d="M5.72604 17.0348V16.8172C5.74132 15.3967 5.88261 14.2663 6.14991 13.4263C6.42485 12.5862 6.81435 11.9064 7.31841 11.3871C7.82246 10.8678 8.42962 10.3943 9.13989 9.96659C9.59812 9.67637 10.0105 9.35179 10.3771 8.99284C10.7437 8.63389 11.0339 8.22148 11.2478 7.75561C11.4616 7.28974 11.5685 6.77422 11.5685 6.20907C11.5685 5.52936 11.4081 4.94129 11.0874 4.44487C10.7666 3.94845 10.3389 3.56659 9.80433 3.29928C9.27736 3.02434 8.68929 2.88687 8.04013 2.88687C7.45206 2.88687 6.89072 3.00907 6.35612 3.25346C5.82151 3.49785 5.37855 3.87971 5.02724 4.39904C4.67592 4.91074 4.47354 5.57136 4.42008 6.38091H0.9375C0.990961 5.00621 1.33846 3.84535 1.97998 2.89833C2.62151 1.94368 3.46924 1.22196 4.52318 0.733173C5.58476 0.244391 6.75707 0 8.04013 0C9.44538 0 10.675 0.263484 11.7289 0.790454C12.7828 1.30978 13.6 2.03914 14.1805 2.97852C14.7685 3.91026 15.0626 4.99857 15.0626 6.24344C15.0626 7.09881 14.9289 7.87017 14.6616 8.55752C14.3943 9.23723 14.0124 9.84439 13.516 10.379C13.0272 10.9136 12.4392 11.3871 11.7518 11.7995C11.1027 12.2043 10.5757 12.6243 10.1709 13.0597C9.77378 13.495 9.48356 14.0105 9.30027 14.6062C9.11698 15.2019 9.01769 15.9389 9.00242 16.8172V17.0348H5.72604ZM7.45588 24C6.82962 24 6.2912 23.7785 5.8406 23.3356C5.39001 22.885 5.16471 22.3427 5.16471 21.7088C5.16471 21.0826 5.39001 20.548 5.8406 20.105C6.2912 19.6544 6.82962 19.4291 7.45588 19.4291C8.07449 19.4291 8.6091 19.6544 9.05969 20.105C9.51793 20.548 9.74705 21.0826 9.74705 21.7088C9.74705 22.1289 9.64013 22.5146 9.42628 22.8659C9.22008 23.2095 8.94514 23.4845 8.60146 23.6907C8.25779 23.8969 7.87592 24 7.45588 24Z" fill="#212121"/>
</svg>
