<svg width="24" height="24" viewBox="0 0 24 24" fill="none" xmlns="http://www.w3.org/2000/svg">
<path fill-rule="evenodd" clip-rule="evenodd" d="M16.25 10.75C16.25 13.5114 14.0114 15.75 11.25 15.75C8.48858 15.75 6.25 13.5114 6.25 10.75C6.25 7.98858 8.48858 5.75 11.25 5.75C14.0114 5.75 16.25 7.98858 16.25 10.75ZM14.844 16.7582C13.7934 17.388 12.564 17.75 11.25 17.75C7.38401 17.75 4.25 14.616 4.25 10.75C4.25 6.88401 7.38401 3.75 11.25 3.75C15.116 3.75 18.25 6.88401 18.25 10.75C18.25 12.5776 17.5496 14.2417 16.4025 15.4883L19.4571 18.5429C19.8476 18.9334 19.8476 19.5666 19.4571 19.9571C19.0666 20.3476 18.4334 20.3476 18.0429 19.9571L14.844 16.7582Z" fill="#71797F"/>
</svg>