<svg width="25" height="24" viewBox="0 0 25 24" fill="none" xmlns="http://www.w3.org/2000/svg">
<g clip-path="url(#clip0_5645_58299)">
<path d="M11.75 3.75C15.616 3.75 18.75 6.88401 18.75 10.75C18.75 12.5776 18.0484 14.2406 16.9014 15.4873L19.957 18.543C20.3476 18.9335 20.3476 19.5665 19.957 19.957C19.5665 20.3476 18.9335 20.3476 18.543 19.957L15.3428 16.7568C14.2923 17.3865 13.0639 17.75 11.75 17.75C7.88401 17.75 4.75 14.616 4.75 10.75C4.75 6.88401 7.88401 3.75 11.75 3.75ZM11.75 5.75C8.98858 5.75 6.75 7.98858 6.75 10.75C6.75 13.5114 8.98858 15.75 11.75 15.75C14.5114 15.75 16.75 13.5114 16.75 10.75C16.75 7.98858 14.5114 5.75 11.75 5.75Z" fill="white"/>
</g>
<defs>
<clipPath id="clip0_5645_58299">
<rect width="24" height="24" fill="white" transform="translate(0.5)"/>
</clipPath>
</defs>
</svg>
