<svg width="33" height="32" viewBox="0 0 33 32" fill="none" xmlns="http://www.w3.org/2000/svg">
<rect x="0.417969" width="32" height="32" rx="16" fill="#182951"/>
<g clip-path="url(#clip0_2009_43902)">
<path d="M17.3374 13.506C17.7046 12.5576 17.8779 11.5535 17.8485 10.5452L18.6375 8.99171C18.7012 8.64623 18.6154 8.29092 18.3995 8.00407C18.1837 7.71723 17.8549 7.52279 17.4863 7.46383C16.1766 7.58518 14.8538 7.53934 13.5563 7.32682C12.2831 7.11795 11.0443 6.7509 9.87398 6.23476C9.50496 6.17451 9.12639 6.25507 8.82077 6.45766C8.51517 6.66027 8.30844 6.96798 8.24425 7.31433L8.35325 9.07446C8.00694 10.0067 7.8417 10.9889 7.86292 11.9756C7.88198 12.739 8.7095 15.9207 10.9877 17.6128C11.3736 17.9007 11.8901 17.9858 12.3571 17.8359C15.3014 16.8837 17.1588 13.963 17.3374 13.506ZM14.3109 9.79801C14.8927 10.3892 15.7161 10.7196 16.573 10.7078C16.6731 10.7077 16.7623 10.7657 16.7975 10.8534C16.834 10.9406 16.8085 11.0399 16.7351 11.1023C16.5167 11.2968 16.2503 11.4395 15.9612 11.5184C15.6246 11.6299 15.257 11.6258 14.9226 11.5078C14.255 11.2477 13.8382 10.6168 13.8877 9.94028C13.8936 9.84799 13.9568 9.76807 14.0493 9.7368C14.1417 9.70552 14.2453 9.72951 14.3109 9.79801ZM10.6932 11.0479C10.3379 11.0751 9.9827 10.9838 9.6919 10.7908C9.43626 10.6394 9.22303 10.435 9.06884 10.1914C9.01594 10.1116 9.02132 10.0094 9.08182 9.93469C9.14141 9.85952 9.24439 9.82773 9.34063 9.85262C10.1621 10.0861 11.0514 9.97915 11.7841 9.55912C11.8654 9.51207 11.9687 9.51459 12.0474 9.56452C12.127 9.61487 12.1667 9.70461 12.1502 9.79313C12.0052 10.4632 11.4178 10.969 10.6932 11.0479ZM14.2447 15.2965C13.6558 14.8152 12.9336 14.498 12.1604 14.3839C11.3882 14.2701 10.597 14.3633 9.879 14.6523C9.79158 14.687 9.69039 14.6694 9.62213 14.6083C9.55432 14.5462 9.53281 14.452 9.56672 14.3694C10.0324 13.2623 11.2619 12.6131 12.5127 12.8148C13.54 12.9804 14.3848 13.8992 14.6279 15.0867C14.6462 15.1783 14.601 15.2718 14.5155 15.318C14.4296 15.3651 14.3212 15.3571 14.2447 15.2965Z" fill="white"/>
<path d="M25.6281 18.3274C24.4595 17.8069 23.3707 17.1423 22.3903 16.3508C21.3921 15.5456 20.5141 14.6161 19.7826 13.5887C19.4986 13.359 19.1309 13.2448 18.757 13.2701C18.3841 13.2958 18.0376 13.46 17.7933 13.7256C17.5336 14.2451 17.2753 14.7641 17.0157 15.2836C16.1668 15.902 15.4507 16.6658 14.9036 17.5335C14.6402 17.9538 13.4159 21.1544 14.502 23.8935L14.503 23.8938C14.6763 24.3276 15.0733 24.6489 15.556 24.7453C18.395 25.3219 21.5394 23.903 22.1793 23.4318L22.1796 23.4309C23.0053 22.8204 23.7081 22.0758 24.255 21.2333L25.7732 20.1943L25.7742 20.1946C26.2826 19.6411 26.2174 18.8055 25.6281 18.3274ZM16.7803 16.6625C17.4077 16.2754 18.2327 16.3265 18.8013 16.787C19.0626 17.0137 19.2311 17.3206 19.2764 17.653C19.3356 17.9583 19.3098 18.2727 19.201 18.5662C19.1727 18.6433 19.0969 18.6966 19.0106 18.7001C18.923 18.7042 18.8424 18.6579 18.8064 18.5831C18.4319 17.8131 17.7099 17.2412 16.8387 17.0252C16.7579 17.0041 16.6976 16.9399 16.6842 16.862C16.672 16.7834 16.7093 16.7051 16.7803 16.6625ZM19.7543 23.3446C18.6153 23.8942 17.2359 23.7396 16.2672 22.9547C15.4784 22.3156 15.1759 21.2011 15.4283 20.0609L15.4292 20.0612C15.4699 19.8727 15.6331 19.7305 15.8363 19.7067C16.0395 19.6829 16.2353 19.7841 16.3239 19.9571C16.9416 21.2524 18.1688 22.2024 19.6423 22.5237C19.8324 22.5676 19.974 22.7156 19.999 22.8982C20.0243 23.0798 19.9261 23.2576 19.7543 23.3446ZM22.5975 21.6684C22.5625 21.7403 22.486 21.7863 22.401 21.7862C22.3173 21.7854 22.2402 21.7383 22.2064 21.6661C21.8507 20.8888 21.1438 20.3014 20.2775 20.0657C20.194 20.0428 20.1337 19.9756 20.1248 19.894C20.1159 19.8124 20.1607 19.7343 20.2385 19.6969C20.5313 19.5534 20.8595 19.4836 21.1905 19.4944C21.547 19.4879 21.8943 19.5989 22.1721 19.8094C22.7397 20.2697 22.9134 21.0289 22.5975 21.6684Z" fill="white"/>
</g>
<defs>
<clipPath id="clip0_2009_43902">
<rect width="24" height="24" fill="white" transform="translate(4.41797 4)"/>
</clipPath>
</defs>
</svg>
