<svg width="25" height="25" viewBox="0 0 25 25" fill="none" xmlns="http://www.w3.org/2000/svg">
<path d="M17.9079 19.345C15.5106 15.7785 11.0679 16.4794 8.34642 17.3554L8.66805 17.1394C11.8066 14.9529 14.4879 16.2802 18.1642 12.7689C21.8405 9.25769 21.4912 3.51442 21.4912 3.51442C21.4912 3.51442 15.4729 3.19041 11.8041 6.69445C8.13531 10.1985 9.52494 12.7545 7.22566 15.7617L7.00204 16.0714C7.91673 13.4697 8.64545 9.22168 4.91886 6.93926C2.02906 5.16804 -0.833107 7.60885 0.224811 9.53127C1.57673 6.66084 9.54003 9.46647 5.60487 17.0698C5.38123 17.1346 5.11741 17.2042 4.78571 17.281C4.78571 17.281 3.50161 15.9393 2.91612 15.6105C2.91612 15.6105 4.27054 18.1906 3.72274 20.485C6.12504 19.9618 8.82639 21.2554 8.82639 21.2554C8.48213 20.6962 7.07996 19.4722 7.07996 19.4722C7.15786 19.153 7.23069 18.901 7.29603 18.6898C15.2518 14.9313 18.1944 22.5418 15.189 23.8282C17.1993 24.841 19.7599 22.1026 17.9079 19.345Z" fill="#CFAC65"/>
</svg>
