<svg width="24" height="21" viewBox="0 0 24 21" fill="none" xmlns="http://www.w3.org/2000/svg">
<path d="M9 6.1871e-07C8.06902 -0.00048744 7.16081 0.287784 6.40053 0.825085C5.64025 1.36239 5.06533 2.12227 4.755 3H0V6H4.755C5.0649 6.8783 5.63961 7.63885 6.3999 8.17682C7.16019 8.71478 8.06863 9.00368 9 9.00368C9.93137 9.00368 10.8398 8.71478 11.6001 8.17682C12.3604 7.63885 12.9351 6.8783 13.245 6H24V3H13.245C12.9347 2.12227 12.3598 1.36239 11.5995 0.825085C10.8392 0.287784 9.93098 -0.00048744 9 6.1871e-07ZM15 12C14.069 11.9995 13.1608 12.2878 12.4005 12.8251C11.6402 13.3624 11.0653 14.1223 10.755 15H0V18H10.755C11.0649 18.8783 11.6396 19.6389 12.3999 20.1768C13.1602 20.7148 14.0686 21.0037 15 21.0037C15.9314 21.0037 16.8398 20.7148 17.6001 20.1768C18.3604 19.6389 18.9351 18.8783 19.245 18H24V15H19.245C18.9347 14.1223 18.3598 13.3624 17.5995 12.8251C16.8392 12.2878 15.931 11.9995 15 12Z" fill="#CFAC65"/>
</svg>
