<svg width="16" height="16" viewBox="0 0 16 16" fill="none" xmlns="http://www.w3.org/2000/svg">
<path d="M0 14.4953C0 10.1632 0 5.83121 0 1.49908C0.00957781 1.47592 0.0236833 1.45363 0.0280369 1.4296C0.114585 0.951054 0.352463 0.560105 0.762568 0.305161C0.98547 0.166719 1.25243 0.0991514 1.49954 -0.000457764C5.83167 -0.000457764 10.1636 -0.000457764 14.4958 -0.000457764C14.5086 0.00755277 14.5208 0.0209617 14.5346 0.0227031C15.2691 0.114824 16.0028 0.79241 16 1.82629C15.9888 5.93883 15.996 10.0515 15.9934 14.1642C15.9932 14.3295 15.9829 14.4991 15.9451 14.6592C15.752 15.4764 15.0694 15.9945 14.1961 15.9947C10.5831 15.9953 6.97038 15.995 3.35746 15.9948C2.79515 15.9948 2.23233 16.0108 1.67089 15.9889C0.998356 15.9626 0.494912 15.6359 0.187203 15.035C0.101351 14.8671 0.0611238 14.6757 0 14.4953ZM2.55066 13.5619C2.87456 13.5619 3.15563 13.5662 3.43617 13.5579C3.48754 13.5563 3.54971 13.5133 3.58593 13.4713C4.49774 12.4155 5.40659 11.3573 6.31613 10.2997C6.61774 9.94897 6.92023 9.59894 7.2295 9.24039C7.27304 9.30238 7.30891 9.35271 7.34392 9.40356C8.26913 10.75 9.19505 12.0958 10.1173 13.4443C10.1769 13.5314 10.2382 13.565 10.344 13.5647C11.3227 13.5605 12.3014 13.5622 13.2801 13.5622C13.3269 13.5622 13.3739 13.5622 13.4472 13.5622C11.9615 11.3997 10.4985 9.27034 9.03518 7.14058C10.3857 5.57034 11.7245 4.01386 13.0927 2.42308C12.7954 2.42308 12.5428 2.429 12.2906 2.42046C12.1746 2.41646 12.1003 2.45547 12.0254 2.54271C10.9588 3.788 9.88848 5.03015 8.81907 6.27283C8.75185 6.35085 8.68394 6.42851 8.60888 6.51489C8.56657 6.45551 8.53278 6.40971 8.50074 6.36286C7.62829 5.09372 6.75497 3.82544 5.88635 2.55368C5.81948 2.45564 5.75104 2.41959 5.63332 2.42029C4.66509 2.42499 3.69669 2.4229 2.72846 2.42342C2.67935 2.42342 2.63041 2.42882 2.56076 2.433C2.60673 2.5037 2.6386 2.5556 2.67308 2.60575C4.01641 4.56119 5.3587 6.5175 6.7069 8.46963C6.78893 8.5884 6.77761 8.653 6.68775 8.75679C5.56018 10.0594 4.43749 11.3663 3.31375 12.6722C3.06716 12.9585 2.82162 13.2458 2.55066 13.5619Z" fill="#212121"/>
</svg>
