<svg width="16" height="12" viewBox="0 0 16 12" fill="none" xmlns="http://www.w3.org/2000/svg">
<path d="M12.8875 0.505312C13.2736 0.538121 13.6625 0.575031 14.0442 0.644258C14.9702 0.812076 15.5658 1.44627 15.7411 2.43268C15.9817 3.78539 16.0301 5.15304 15.9847 6.52101C15.9528 7.47739 15.8618 8.43279 15.7697 9.38573C15.7023 10.0839 15.4218 10.6779 14.812 11.0751C14.4397 11.3175 14.0197 11.3879 13.5935 11.4333C11.9394 11.6095 10.2783 11.6496 8.61764 11.641C6.94613 11.6325 5.27462 11.5816 3.60393 11.527C3.06723 11.5095 2.53005 11.4399 1.9979 11.3613C1.08488 11.2265 0.461581 10.5936 0.272771 9.64328C0.0842853 8.69395 0.0402512 7.73019 0.0126283 6.76675C-0.0237689 5.49884 0.0150656 4.23274 0.174303 2.97304C0.210051 2.69039 0.257659 2.40709 0.327854 2.13133C0.543637 1.28535 1.2282 0.715618 2.1352 0.600786C3.69833 0.40262 5.2704 0.386051 6.84197 0.359312C7.21391 0.352914 11.2064 0.362429 12.8875 0.505312ZM6.4148 3.58395C6.4148 5.20422 6.4148 6.79808 6.4148 8.41491C7.80374 7.60748 9.17546 6.81006 10.5698 5.99951C9.17562 5.18896 7.8065 4.39302 6.4148 3.58395Z" fill="#212121"/>
</svg>
